<?xml version="1.0" encoding="iso-8859-1"?>
<!-- Generator: Adobe Illustrator 18.1.1, SVG Export Plug-In . SVG Version: 6.00 Build 0)  -->
<svg version="1.1" id="Capa_1" xmlns="http://www.w3.org/2000/svg" xmlns:xlink="http://www.w3.org/1999/xlink" x="0px" y="0px"
	 viewBox="0 0 56.685 56.685" style="enable-background:new 0 0 56.685 56.685;" xml:space="preserve">
<g>
	<g>
		<path style="fill:#010002;" d="M16.76,32.721c-0.003,0.004-0.006,0.008-0.009,0.015L0.064,30.224L0,30.698l16.728,2.067
			c-1.127,1.278-1.029,3.23,0.238,4.389c1.28,1.168,3.266,1.074,4.433-0.204c1.167-1.281,1.077-3.267-0.204-4.437
			C19.913,31.348,17.928,31.437,16.76,32.721z"/>
		<path style="fill:#010002;" d="M36.299,34.463c-1.443,0.066-2.889,0.133-4.332,0.199c-0.652-0.461-1.35-0.852-2.08-1.178
			c0.967-1.061,1.934-2.121,2.9-3.182c1.253-1.375-0.879-3.317-2.133-1.944c-1.269,1.389-2.53,2.774-3.794,4.163
			c-0.389-0.082-0.781-0.148-1.176-0.203c-3.457-0.475-4.62,4.855-1.128,5.334c2.027,0.277,3.78,0.807,5.24,2.287
			c1.271,1.289,1.541,3.318,1.596,5.08c-1.016,1.229-2.266,2.229-3.784,2.857c-1.708,0.713-0.858,3.471,0.859,2.758
			c1.656-0.688,3.064-1.654,4.268-2.854c0.385,0.188,0.821,0.277,1.266,0.275c-0.008,0.574-0.021,1.146-0.041,1.723
			c-1.604,0.594-3.242,1.061-4.938,1.328c-1.825,0.287-1.657,3.173,0.18,2.881c2.292-0.364,4.499-0.969,6.646-1.844
			c0.729-0.295,0.979-0.957,0.903-1.567c0.035-0.144,0.064-0.289,0.07-0.438c0.057-1.463,0.101-2.928,0.018-4.391
			c-0.001-0.021-0.01-0.038-0.012-0.061c0.019-0.131,0.025-0.266,0.024-0.405c-0.028-2.763-0.614-5.562-2.176-7.856
			c0.586-0.027,1.173-0.057,1.759-0.082C38.293,37.26,38.158,34.376,36.299,34.463z"/>
		<circle style="fill:#010002;" cx="34.162" cy="8.053" r="2.682"/>
		<path style="fill:#010002;" d="M20.265,26.088c0.372-1.865,0.743-3.731,1.114-5.597c1.048-0.103,2.093-0.229,3.136-0.373
			c0.414,0.483,0.87,0.964,1.366,1.415c-0.798,1.056-1.63,2.088-2.424,3.122c-1.254,1.633-2.52,3.258-3.797,4.874
			c-0.925,1.173,0.721,2.842,1.658,1.656c1.293-1.641,2.575-3.289,3.85-4.939c0.848-1.102,1.739-2.202,2.593-3.327
			c1.489,0.853,3.201,1.257,5.065,0.678l-1.809-5.199c1.245-1.342,2.491-2.685,3.735-4.027c0.18-0.192,0.299-0.395,0.387-0.601
			c1.632,0.386,3.259,0.772,4.888,1.157c1.471,0.348,2.094-1.912,0.623-2.26c-2.203-0.521-4.406-1.043-6.61-1.565
			c-0.036-0.008-0.069-0.008-0.103-0.014c-0.643-0.261-1.396-0.189-2.017,0.48c-1.29,1.391-2.58,2.782-3.871,4.174l-6.119,0.555
			c0,0,0.35,0.705,0.986,1.682c-0.817,0.1-1.636,0.189-2.458,0.256c-0.506,0.042-0.838,0.339-1.003,0.708
			c-0.122,0.133-0.218,0.305-0.263,0.533c-0.398,1.997-0.794,3.992-1.192,5.989C17.712,26.94,19.969,27.568,20.265,26.088z"/>
		<path style="fill:#010002;" d="M37.242,4.886c0.145-0.081,0.287-0.157,0.414-0.211c0.123-0.054,0.25-0.079,0.262-0.049
			c0.008,0.012-0.03,0.028-0.066,0.025c-0.037-0.002-0.051-0.008-0.048,0.009c0,0.013,0.021,0.062,0.026,0.085l0.02,0.053
			c-0.003-0.004,0.01,0.028,0.014,0.039l0.031,0.103l0.287,0.907c0.215,0.635,0.512,1.349,1.082,1.918
			c0.283,0.28,0.639,0.505,1.018,0.614c0.377,0.108,0.767,0.111,1.115,0.006c-0.312-0.196-0.576-0.387-0.781-0.606
			c-0.205-0.216-0.355-0.444-0.48-0.692c-0.253-0.492-0.41-1.063-0.618-1.686c-0.104-0.313-0.221-0.639-0.39-0.979l-0.07-0.126
			l-0.039-0.075l-0.035-0.059c-0.072-0.124-0.145-0.216-0.256-0.329c-0.107-0.105-0.257-0.219-0.447-0.282S37.88,3.493,37.72,3.538
			C37.559,3.58,37.443,3.65,37.343,3.72c-0.098,0.071-0.178,0.143-0.245,0.218c-0.139,0.149-0.241,0.3-0.337,0.452
			c-0.092,0.153-0.174,0.302-0.25,0.456c-0.039,0.076-0.078,0.151-0.121,0.223c-0.039,0.076-0.082,0.145-0.148,0.208
			c0.191,0.017,0.375-0.075,0.537-0.146C36.944,5.054,37.094,4.966,37.242,4.886z"/>
		<path style="fill:#010002;" d="M34.75,4.369c0-0.375,0-0.751,0-1.126c0-0.755-1.174-0.755-1.174,0c0,0.375,0,0.751,0,1.126
			C33.576,5.125,34.75,5.125,34.75,4.369z"/>
		<polygon style="fill:#010002;" points="56.685,18.857 56.541,18.404 27.38,27.89 		"/>
		<polygon style="fill:#010002;" points="33.66,32.23 51.867,32.06 51.858,31.585 		"/>
		<polygon style="fill:#010002;" points="16.19,30.187 9.18,25.39 8.923,25.79 		"/>
		<polygon style="fill:#010002;" points="42.636,28.136 42.535,27.671 34.287,29.7 		"/>
		<polygon style="fill:#010002;" points="4.474,12.205 4.125,12.527 19.439,28.802 		"/>
	</g>
</g>
<g>
</g>
<g>
</g>
<g>
</g>
<g>
</g>
<g>
</g>
<g>
</g>
<g>
</g>
<g>
</g>
<g>
</g>
<g>
</g>
<g>
</g>
<g>
</g>
<g>
</g>
<g>
</g>
<g>
</g>
</svg>
