<?xml version="1.0" encoding="iso-8859-1"?>
<!-- Generator: Adobe Illustrator 18.1.1, SVG Export Plug-In . SVG Version: 6.00 Build 0)  -->
<svg version="1.1" id="Capa_1" xmlns="http://www.w3.org/2000/svg" xmlns:xlink="http://www.w3.org/1999/xlink" x="0px" y="0px"
	 viewBox="0 0 43.681 43.681" style="enable-background:new 0 0 43.681 43.681;" xml:space="preserve">
<g>
	<g>
		<path style="fill:#030104;" d="M41.472,11.283C37.513,4.543,30.206,0,21.841,0S6.169,4.543,2.211,11.283
			c-0.56,0.951-0.304,2.398,0.477,3.18l9.714,9.715c0.781,0.78,2.079,0.805,3.015,0.219c1.864-1.17,4.064-1.851,6.423-1.851
			s4.56,0.681,6.425,1.851c0.936,0.588,2.233,0.562,3.014-0.219l9.715-9.714C41.774,13.683,42.03,12.235,41.472,11.283z
			 M21.96,16.509c-2.269,0-4.108-1.839-4.108-4.108s1.839-4.108,4.108-4.108c2.27,0,4.107,1.839,4.107,4.108
			S24.229,16.509,21.96,16.509z"/>
		<path style="fill:#030104;" d="M18.938,23.85c-0.432,0.119-0.4,1.137,0.06,2.237l1.241,2.972c0.165-0.101,0.337-0.19,0.519-0.262
			l-0.606-3.015C19.918,24.611,19.37,23.73,18.938,23.85z"/>
		<path style="fill:#030104;" d="M22.977,23.488c-0.446-0.04-0.808,0.924-0.808,2.117v2.978c0.203,0.013,0.401,0.04,0.592,0.088
			l0.596-2.965C23.591,24.537,23.423,23.528,22.977,23.488z"/>
		<path style="fill:#030104;" d="M21.751,28.583v-2.978c0-1.193-0.363-2.157-0.808-2.117c-0.446,0.04-0.614,1.049-0.379,2.219
			l0.596,2.965C21.35,28.623,21.548,28.596,21.751,28.583z"/>
		<path style="fill:#030104;" d="M24.981,23.85c-0.433-0.119-0.98,0.762-1.215,1.932l-0.606,3.015
			c0.182,0.071,0.354,0.161,0.519,0.263l1.241-2.973C25.381,24.984,25.413,23.969,24.981,23.85z"/>
		<path style="fill:#030104;" d="M17.031,24.564c-0.404,0.195-0.179,1.181,0.487,2.172l1.98,2.945
			c0.121-0.137,0.253-0.26,0.395-0.373l-1.285-3.076C18.148,25.132,17.435,24.371,17.031,24.564z"/>
		<path style="fill:#030104;" d="M25.028,30.646l0.677-0.676l1.872-1.871c0,0,0.419-0.42,0.936-0.937
			c0.518-0.517,0.627-1.207,0.215-1.502c-0.412-0.294-1.302,0.296-1.968,1.287l-2.062,3.067
			C24.831,30.212,24.938,30.424,25.028,30.646z"/>
		<path style="fill:#030104;" d="M15.192,25.662c-0.412,0.294-0.302,0.984,0.215,1.502l0.936,0.936l1.872,1.873l0.675,0.676
			c0.089-0.223,0.198-0.437,0.331-0.633l-2.062-3.066C16.495,25.958,15.604,25.367,15.192,25.662z"/>
		<path style="fill:#030104;" d="M26.888,24.564c-0.404-0.194-1.117,0.567-1.576,1.668l-1.285,3.076
			c0.142,0.113,0.273,0.236,0.395,0.373l1.98-2.945C27.067,25.745,27.292,24.76,26.888,24.564z"/>
		<path style="fill:#030104;" d="M26.306,34.569c-0.718-0.245-1.336-0.296-1.923-0.16c-0.194,0.046-0.385,0.119-0.582,0.211
			c-0.067,0.046-0.145,0.077-0.217,0.118c-0.169,0.092-0.337,0.185-0.525,0.316l-0.085,0.061c-0.042,0.029-0.122,0.053-0.174,0.053
			c-0.063,0-0.13-0.018-0.21-0.049c-0.076-0.03-0.163-0.071-0.273-0.126c-0.127-0.062-0.194-0.179-0.227-0.324
			c-0.032-0.144-0.027-0.313,0.004-0.5c1.21-0.071,2.174-1.069,2.174-2.297c0-0.146-0.017-0.285-0.043-0.423
			c-0.033-0.176-0.084-0.344-0.154-0.504c-0.065-0.151-0.15-0.291-0.246-0.424c-0.059-0.082-0.123-0.159-0.192-0.232
			c-0.106-0.111-0.222-0.214-0.348-0.303c-0.101-0.071-0.209-0.131-0.321-0.184c-0.129-0.063-0.263-0.113-0.404-0.15
			c-0.126-0.034-0.256-0.055-0.389-0.068c-0.071-0.007-0.139-0.021-0.211-0.021s-0.141,0.016-0.211,0.021
			c-0.133,0.012-0.263,0.034-0.389,0.068c-0.14,0.037-0.275,0.088-0.404,0.15c-0.112,0.053-0.22,0.112-0.321,0.184
			c-0.126,0.089-0.242,0.191-0.348,0.303c-0.069,0.073-0.133,0.15-0.192,0.232c-0.096,0.133-0.18,0.272-0.247,0.424
			c-0.07,0.158-0.122,0.328-0.154,0.503c-0.026,0.137-0.043,0.278-0.043,0.423c0,0.825,0.438,1.545,1.09,1.954
			c-0.132,0.118-0.283,0.214-0.454,0.291c-0.186,0.083-0.383,0.133-0.592,0.155c-0.107,0.011-0.213,0.033-0.322,0.025
			c-0.419-0.025-0.862-0.029-1.104,0.012c-1.382,0.23-2.429,0.961-3.111,2.168c-0.243,0.43-0.323,0.826-0.244,1.215
			c0.233,1.154,1.031,1.738,2.187,1.568c0.548-0.084,1.07-0.32,1.643-0.746c0.782-0.58,1.482-1.356,2.206-2.442l0.072-0.107
			c0.075-0.11,0.204-0.179,0.338-0.179c0.058,0,0.113,0.012,0.165,0.035c0.068,0.031,0.137,0.115,0.156,0.188
			c0.042,0.16-0.055,0.403-0.287,0.723c-0.115,0.158-0.227,0.315-0.331,0.478c-0.837,1.313-1.212,2.508-1.18,3.761
			c0.018,0.686,0.146,1.211,0.403,1.654c0.411,0.71,0.952,1.057,1.655,1.057l0.06-0.002c0.8-0.021,1.36-0.41,1.712-1.189
			c0.153-0.34,0.247-0.721,0.278-1.135c0.076-1.01-0.006-1.758-0.268-2.431c-0.106-0.276-0.243-0.503-0.413-0.69
			c-0.194-0.217-0.642-0.072-0.841,0.234c-0.166,0.254-0.216,0.418-0.225,0.489c0.098,0.056,0.188,0.134,0.271,0.233
			c0.079,0.096,0.126,0.199,0.167,0.293c0.26,0.57,0.327,1.182,0.209,1.88c-0.053,0.311-0.133,0.636-0.364,0.913
			c-0.166,0.199-0.384,0.31-0.615,0.31c-0.23,0-0.447-0.108-0.61-0.31c-0.083-0.102-0.149-0.205-0.195-0.309
			c-0.202-0.455-0.272-0.953-0.21-1.48c0.086-0.727,0.386-1.37,0.639-1.85c0.169-0.326,0.362-0.643,0.572-0.943
			c0.399-0.568,1.184-0.756,1.599-0.389l0.559,0.491c0.478,0.421,0.953,0.82,1.52,1.087c0.666,0.313,1.256,0.415,1.818,0.312
			c0.521-0.096,1.002-0.469,1.252-0.977c0.242-0.488,0.238-1.021-0.008-1.504C28.321,35.689,27.465,34.969,26.306,34.569z
			 M19.057,36.909c-0.358,0.382-0.729,0.681-1.131,0.913c-0.382,0.22-0.746,0.328-1.113,0.331c-0.318,0-0.58-0.136-0.727-0.368
			c-0.147-0.234-0.154-0.531-0.018-0.812c0.173-0.355,0.453-0.598,0.704-0.787c0.691-0.518,1.367-0.795,2.066-0.85
			c0.112-0.01,0.227-0.013,0.341-0.013l0.11,0.001c0.417,0.005,0.637,0.02,0.679,0.245C20.027,35.844,19.067,36.898,19.057,36.909z
			 M27.696,37.889c-0.143,0.146-0.346,0.229-0.572,0.229c-0.529-0.006-1.018-0.189-1.46-0.545c-0.279-0.225-0.552-0.457-0.825-0.693
			c-0.346-0.302-0.51-0.686-0.428-1.004c0.059-0.227,0.234-0.386,0.484-0.438c0.308-0.065,0.614-0.062,0.92,0.016
			c0.804,0.2,1.442,0.639,1.897,1.304c0.113,0.167,0.185,0.39,0.188,0.597S27.833,37.75,27.696,37.889z"/>
	</g>
</g>
<g>
</g>
<g>
</g>
<g>
</g>
<g>
</g>
<g>
</g>
<g>
</g>
<g>
</g>
<g>
</g>
<g>
</g>
<g>
</g>
<g>
</g>
<g>
</g>
<g>
</g>
<g>
</g>
<g>
</g>
</svg>
