<svg version="1" xmlns="http://www.w3.org/2000/svg" width="209.667" height="239.316" viewBox="0 0 209.667 239.316"><path fill-rule="evenodd" clip-rule="evenodd" fill="#FCFCFC" d="M68.604 235.519c3.579-2.506 6.172-2.087 8.907-1.16 1.944.659 2.632-.611 2.818-2.342.174-1.621-.302-2.608-2.129-2.341-3.405.499-3.544-.596-3.086-3.911.656-4.739 1.106-7.791 7.184-6.292 2.265.559 4.741 1.294 7.225 1.194 1.147-.047 1.939.263 1.781 1.647-.227 1.984-1.255.665-2 .497-2.544-.572-5.17.299-7.775-.969-1.925-.937-2.948.873-3.16 2.717-.196 1.706-.313 3.215 2.351 3.182 2.585-.032 5.174.645 7.772.901 1.106.11 1.973.232 1.813 1.643-.232 2.028-1.341 1.071-2.473.901-1.616-.242-3.975-2.176-4.49 1.377-.508 3.499 1.896 3.169 4.087 3.098 1.87-.061 3.426.657 4.671 3.095l-23.496-3.237z"/><path fill-rule="evenodd" clip-rule="evenodd" fill="#FBFBFB" d="M166.452 220.596c-.9 1.388-2.244 1.729-3.646 2.103-3.386.899-5.949 2.176-2.849 6.211.642.835 1.668 2.422.162 3.372-1.597 1.009-2.475-.295-2.776-1.674-1.223-5.584-4.583-4.636-8.355-2.923-1.035.47-2.665 1.905-3.244-.129-.474-1.66 1.422-1.54 2.609-1.983 4.823-1.803 9.531-3.918 14.379-5.649.968-.346 2.759-1.43 3.72.672z"/><path fill-rule="evenodd" clip-rule="evenodd" fill="#FCFCFC" d="M54.917 215.167l-7.704-3.004c4.306-1.992 7.65.503 11.229 1.589 1.398.424.072 1.452-.161 1.828-3.383 5.467-8.495 8.275-14.678 9.579-1.439.304-1.15-.595-1.479-1.137-1.11-1.832.596-1.136 1.26-1.389 4.376-1.67 8.938-3.057 11.533-7.466zm125.562-3.687c-.513 1.763-1.066 3.967-1.81 6.106-.387 1.111-1.545 1.359-2.506.979-1.529-.605-.297-1.487-.104-2.339.663-2.922 1.791-5.584.7-8.951-.983-3.037-1.86-2.815-3.864-1.503-1.08.707-2.24 1.327-3.202 2.171-.948.831-1.475.229-1.933-.388-.549-.742-.631-1.474.517-1.892.593-.217 1.06-.783 1.653-.997 2.534-.913 4.723-5.062 6.887-3.421 2.618 1.986 3.335 6.103 3.662 10.235zm-114.2 3.171c-1.031 2.228-2.021 4.264-2.924 6.337-1.8 4.131-3.483 8.317-5.454 12.364-.163.334.281 2.639-1.979 1.641-1.779-.785-1.086-1.524-.682-2.495 2.367-5.689 4.729-11.38 7.141-17.049.475-1.114 1.287-1.913 2.69-1.771.765.075 1.221.357 1.208.973zm69.187 24.559c-1.104.388-.994-.378-1.135-.972-1.596-6.731-3.215-13.458-4.813-20.189-.178-.745.097-1.24.926-1.349 1.346-.177 2.436.41 2.713 1.624 1.447 6.321 2.785 12.668 4.102 19.018.292 1.406-1.197 1.308-1.793 1.868zm58.312-24.559c-1.395.1-2.071-.997-2.756-1.847-3.769-4.677-7.473-9.406-11.156-14.149-.473-.608-1.959-.915-.798-2.215 1.142-1.278 2.016-.699 2.831.301 4.334 5.313 8.677 10.62 12.951 15.981.961 1.204.122 1.747-1.072 1.929z"/><path fill-rule="evenodd" clip-rule="evenodd" fill="#FDFDFD" d="M31.438 214.775c-.395-1.033-.849-1.864.198-3.026 2.07-2.299 3.828-4.88 5.723-7.338.771-1.001 1.325-2.476 3.048-1.175 1.507 1.138-.003 2.08-.288 2.888-.556 1.576-4.108 2.646-.322 4.705.886.481-.751 1.742-.897 1.637-3.526-2.562-4.773 2.542-7.577 2.198l.115.111z"/><path fill-rule="evenodd" clip-rule="evenodd" fill="#FBFAFB" d="M28.464 201.74l-3.269-2.677c-.721-.592-2.702-.433-1.489-2.196.715-1.038 1.565-.441 2.483.074 1.328.746 2.628 2.659 4.386.27.526-.716 1.631.53 1.633 1.096.006 2.2.827 3.717 2.971 4.312 1.054.293 1.396.855.868 1.728-.521.86-1.073 1.319-2.253.419-1.653-1.26-3.618-2.11-5.449-3.135a2.48 2.48 0 0 1 .119.109z"/><path fill-rule="evenodd" clip-rule="evenodd" fill="#FE383E" d="M30.518 174.678c2.89.813 4.71 2.722 5.664 5.521-2.504-1.209-4.362-3.08-5.664-5.521z"/><path fill-rule="evenodd" clip-rule="evenodd" fill="#FCFBFB" d="M121.027 219.727c-2.839.238-6.296 2.319-5.698 7.173.068 5.033 2.92 8.712 6.795 8.768 3.724.053 6.211-2.637 6.212-6.72.001-4.368-3.919-9.504-7.309-9.221zm1.605 13.065c-3.457-.034-4.038-2.853-4.25-5.534-.149-1.89-.569-4.603 2.363-4.467 3.485.161 3.814 3.447 4.537 5.465.174 2.63-.306 4.559-2.65 4.536z"/><path fill-rule="evenodd" clip-rule="evenodd" fill="#FDFDFD" d="M158.786 212.17c-1.123-2.235-1.994-2.945-4.445-1.618-2.525 1.367-5.365 2.204-8.138 3.039-1.224.368-2.923.512-2.219 2.034 1.126 2.436 1.63 5.332 3.593 7.041.664-.033.848.003.992-.057 2.383-.971 4.723-2.063 7.147-2.913 5.961-2.092 5.855-1.988 3.07-7.526zm-8.763 7.149c-2.051.834-2.144-1.913-1.991-2.408.969-3.137 4.393-2.593 6.656-3.837 1.967-1.08 1.146 1.948 2.947 2.131-2.181 2.774-5.138 3.109-7.612 4.114z"/><g fill="#FCFCFC"><path d="M20.235 207.618c.037.043.068.089.104.133l.015-.018-.119-.115zm11.089 7.048c.013.043.018.082.029.124l.086-.015-.115-.109z"/><path d="M31.353 214.79c-2.075.413-3.771.1-5.94-.822-3.173-1.349-3.437-4.171-5.074-6.217-6.035 7.239-6.029 7.244 2.011 11.921.42.244.818.529 1.246.758 1.287.688 2.566 2.778 4.011 1.286 1.812-1.873 4.681-3.491 3.746-6.926zm-12.757-.762c3.209.133 3.657.353 8.01 3.932-2.396.146-4.547-.91-8.01-3.932z"/></g><g fill="#FCFCFC"><path d="M28.348 201.629c.021.034.047.068.07.103l.046.008-.116-.111zm-7.994 6.104l-.006-.1c-.037-.006-.077-.008-.112-.016-.001.001.118.116.118.116z"/><path d="M28.417 201.732c-8.25-1.455-8.389.645-8.07 5.901.582.099 1.279.063 1.66.392 2.611 2.26 5.795 4.253 8.553 1.432 2.858-2.923-.574-5.328-2.143-7.725zm-2.451 5.913c-1.542.012-2.462-.834-2.661-2.332-.175-1.318.612-1.738 1.988-1.594.829.847 2.879.305 3.018 2.366.128 1.912-1.263 1.551-2.345 1.56z"/></g><path fill-rule="evenodd" clip-rule="evenodd" fill="#FFF" d="M201.305 112.987c-1.946-27.207-15.41-54.22-43.314-64.063-15.539-5.481-30.787-3.303-45.792 2.346-6.006 2.261-11.819 4.989-17.268 8.373-2.238 1.39-2.728.514-2.551-1.426.333-3.652-.745-7.111-1.312-11.389-.039-.01-.073-.024-.115-.032-4.434 8.362-8.804 16.104-14.604 22.873-3.407 3.977-7.364 7.542-7.495 13.406-.02.91-1.202 2.102-2.145 2.63-3.373 1.891-5.096 5.032-7.184 8.086-4.011 5.863-4.167 6.565 1.427 12.633.847-2.058-.344-4.516 1.815-6.168 1.926 3.431 3.312 2.835 4.278-.786.415-1.555 1.021-3.374 3.305-1.587 1.515 1.186 1.875.226 2.04-1.229.605-5.311 4.79-6.899 9.008-7.806 2.779-.597 6.795-1.481 5.97 4.023-.164 1.091.4 2.027 1.351 2.474 2.592 1.218 2.064 3.626 1.179 5.068-1.696 2.767-1.601 5.191.073 8.061 1.702-3.617 5.186-6.286 4.427-10.95-.306-1.881 1.249-3.536 2.777-3.528 1.953.01 2.042 2.147 2.162 3.823.269 3.775-.831 7.145-2.914 10.243-.493.733-1.867 1.993-.545 2.293 4.844 1.097-.187 3.203.909 4.957 2.852.083 5.635-1.264 8.494-2.063 2.294-.641 2.271-2.279 1.587-4.343-1.305-3.934-1.786-8.011-1.561-12.189.279-5.186 2.657-9.082 6.834-11.997 1.125-.785 3.168-.648 3.107-2.62-.071-2.322-2.244-2.587-3.821-3.358-.422-.206-.942-.21-1.492-.322 4.235-2.412 9.11-3.323 19.139-1.594 8.103 1.398 16.064 3.967 20.858 11.717 2.662 4.305 1.969 6.53-2.898 8.069-6.848 2.165-14.144 2.819-20.68 6.054-5.663 2.802-6.971 5.855-5.723 12.063 1.837 9.133.678 18.055-2.723 26.646-.58 1.465-1.031 4.559-2.842 3.91-2.232-.8-4.436-2.725-4.771-5.822-.542-5.013 1.931-8.828 4.417-12.765 1.996-3.158 2.77-6.326-1.762-9.275a1.466 1.466 0 0 0-.326.166c2.673 7.324-4.491 9.721-5.929 14.737-2.863-2.284-.81-4.646-.04-6.773 2.352-6.5 1.551-7.758-6.099-7.729 3.949 2.374 3.334 5.361 1.198 7.715-2.584 2.847-2.648 5.276-.765 8.43 1.52 2.545.703 5.287-2.1 6.025-4.435 1.168-6.254 4.603-8.167 7.979-1.444 2.549-3.261 4.402-6.292 5.305 2.721 2.177 5.042 2.023 7.134-.38.964-1.106 1.721-2.391 2.621-3.556 6.214-8.043 9.932-7.732 15.426 1.072 1.483 2.378-.488 3.087-1.648 3.842-8.499 5.536-17.998 7.648-27.888 6.202C63.274 158 48.799 150.822 37.15 138.07c-15.18-16.617-18.657-36.851-9.256-57.48 4.851-10.647 11.901-19.69 20.473-27.597.349-.322.588-.776 1.216-1.779-.052-.094-.097-.187-.17-.282-.08-.104-.164-.172-.246-.253-5.603 2.642-9.166 6.26-12.715 9.544-13.808 12.774-23.424 28.411-25.802 47.116-2.876 22.617 2.629 43.61 16.799 61.924.79 1.02 2.12 1.736 1.677 3.358l-.002-.003.002.003 1.393 2.057c2.126 1.595 3.942 3.509 5.663 5.52 2.838 2.505 5.458 5.227 8.581 7.443 16.966 12.045 35.727 19.168 56.555 19.931 14.374.525 28.192-2.706 41.668-7.763 12.336-4.629 23.3-11.421 32.854-20.303 8.357-7.771 14.228-17.485 19.073-27.789 4.553-12.51 7.35-25.344 6.392-38.73zM84.181 76.936c-1.508 4.416-5.135 5.784-9.748 6.183 1.209-4.095 3.216-7.093 7.065-8.466.805-.287 1.639-1.651 2.458-.52.479.66.511 1.965.225 2.803z"/><path fill-rule="evenodd" clip-rule="evenodd" fill="#FFF" d="M37.235 68.975c7.061-9.23 14.549-17.834 22.726-25.898-11.099 3.56-19.351 11.359-29.157 19.096 2.362-4.691 3.526-8.557 4.308-12.491.435-2.189 1.898-2.994 3.495-3.801 10.928-5.519 22.193-9.949 34.665-10.197 2.805-.056 5.407-1.939 8.572-.589-6.538 2.703-12.856 5.53-18.531 9.677-5.413 3.954-8.954 8.979-11.019 15.311-2.236 6.858-8.058 10.262-15.059 8.892z"/><path fill="#FFF" d="M209.428 104.283c-.301-44.808-29.576-84.658-72.211-98.418-40.84-13.18-86.804 1.327-113.738 34.334C-5.084 75.201-6.53 126.139 18.662 163.3c24.578 36.256 70.3 52.166 112.355 41.586 45.711-11.5 78.096-53.718 78.411-100.603.004-.601-2.892-.15-2.898.777-.321 48.092-34.503 90.844-82.009 100.155-46.97 9.206-94.465-17.633-113.043-61.162-18.531-43.419-3.452-94.943 34.289-122.68C85.409-7.763 141.258-1.952 176.001 31.926c19.619 19.131 30.346 45.865 30.528 73.134.005.611 2.905.145 2.899-.777z"/></svg>