<?xml version="1.0" encoding="utf-8"?>
<!-- Generator: Adobe Illustrator 16.0.0, SVG Export Plug-In . SVG Version: 6.00 Build 0)  -->
<!DOCTYPE svg PUBLIC "-//W3C//DTD SVG 1.0//EN" "http://www.w3.org/TR/2001/REC-SVG-20010904/DTD/svg10.dtd">
<svg version="1.0" xmlns="http://www.w3.org/2000/svg" xmlns:xlink="http://www.w3.org/1999/xlink" x="0px" y="0px"
	 width="209.667px" height="239.316px" viewBox="0 0 209.667 239.316" enable-background="new 0 0 209.667 239.316"
	 xml:space="preserve">
<g id="Camada_2" display="none">
	<linearGradient id="SVGID_1_" gradientUnits="userSpaceOnUse" x1="-265.6284" y1="107.3774" x2="490.1406" y2="107.3774">
		<stop  offset="0" style="stop-color:#1800BF"/>
		<stop  offset="1" style="stop-color:#940004"/>
	</linearGradient>
	
		<rect x="-265.628" y="-150.796" display="inline" fill-rule="evenodd" clip-rule="evenodd" fill="url(#SVGID_1_)" width="755.769" height="516.346"/>
</g>
<g id="Camada_1">
	<path fill-rule="evenodd" clip-rule="evenodd" fill="#FCFCFC" d="M68.604,235.519c3.579-2.506,6.172-2.087,8.907-1.16
		c1.944,0.659,2.632-0.611,2.818-2.342c0.174-1.621-0.302-2.608-2.129-2.341c-3.405,0.499-3.544-0.596-3.086-3.911
		c0.656-4.739,1.106-7.791,7.184-6.292c2.265,0.559,4.741,1.294,7.225,1.194c1.147-0.047,1.939,0.263,1.781,1.647
		c-0.227,1.984-1.255,0.665-2,0.497c-2.544-0.572-5.17,0.299-7.775-0.969c-1.925-0.937-2.948,0.873-3.16,2.717
		c-0.196,1.706-0.313,3.215,2.351,3.182c2.585-0.032,5.174,0.645,7.772,0.901c1.106,0.11,1.973,0.232,1.813,1.643
		c-0.232,2.028-1.341,1.071-2.473,0.901c-1.616-0.242-3.975-2.176-4.49,1.377c-0.508,3.499,1.896,3.169,4.087,3.098
		c1.87-0.061,3.426,0.657,4.671,3.095C84.637,237.728,77.175,236.7,68.604,235.519z"/>
	<path fill-rule="evenodd" clip-rule="evenodd" fill="#FBFBFB" d="M166.452,220.596c-0.9,1.388-2.244,1.729-3.646,2.103
		c-3.386,0.899-5.949,2.176-2.849,6.211c0.642,0.835,1.668,2.422,0.162,3.372c-1.597,1.009-2.475-0.295-2.776-1.674
		c-1.223-5.584-4.583-4.636-8.355-2.923c-1.035,0.47-2.665,1.905-3.244-0.129c-0.474-1.66,1.422-1.54,2.609-1.983
		c4.823-1.803,9.531-3.918,14.379-5.649C163.7,219.578,165.491,218.494,166.452,220.596z"/>
	<path fill-rule="evenodd" clip-rule="evenodd" fill="#FCFCFC" d="M54.917,215.167c-2.604-1.016-5.154-2.01-7.704-3.004
		c4.306-1.992,7.65,0.503,11.229,1.589c1.398,0.424,0.072,1.452-0.161,1.828c-3.383,5.467-8.495,8.275-14.678,9.579
		c-1.439,0.304-1.15-0.595-1.479-1.137c-1.11-1.832,0.596-1.136,1.26-1.389C47.76,220.963,52.322,219.576,54.917,215.167z"/>
	<path fill-rule="evenodd" clip-rule="evenodd" fill="#FCFCFC" d="M180.479,211.48c-0.513,1.763-1.066,3.967-1.81,6.106
		c-0.387,1.111-1.545,1.359-2.506,0.979c-1.529-0.605-0.297-1.487-0.104-2.339c0.663-2.922,1.791-5.584,0.7-8.951
		c-0.983-3.037-1.86-2.815-3.864-1.503c-1.08,0.707-2.24,1.327-3.202,2.171c-0.948,0.831-1.475,0.229-1.933-0.388
		c-0.549-0.742-0.631-1.474,0.517-1.892c0.593-0.217,1.06-0.783,1.653-0.997c2.534-0.913,4.723-5.062,6.887-3.421
		C179.435,203.231,180.152,207.348,180.479,211.48z"/>
	<path fill-rule="evenodd" clip-rule="evenodd" fill="#FCFCFC" d="M66.279,214.651c-1.031,2.228-2.021,4.264-2.924,6.337
		c-1.8,4.131-3.483,8.317-5.454,12.364c-0.163,0.334,0.281,2.639-1.979,1.641c-1.779-0.785-1.086-1.524-0.682-2.495
		c2.367-5.689,4.729-11.38,7.141-17.049c0.475-1.114,1.287-1.913,2.69-1.771C65.836,213.753,66.292,214.035,66.279,214.651z"/>
	<path fill-rule="evenodd" clip-rule="evenodd" fill="#FCFCFC" d="M135.466,239.21c-1.104,0.388-0.994-0.378-1.135-0.972
		c-1.596-6.731-3.215-13.458-4.813-20.189c-0.178-0.745,0.097-1.24,0.926-1.349c1.346-0.177,2.436,0.41,2.713,1.624
		c1.447,6.321,2.785,12.668,4.102,19.018C137.551,238.748,136.062,238.65,135.466,239.21z"/>
	<path fill-rule="evenodd" clip-rule="evenodd" fill="#FCFCFC" d="M193.778,214.651c-1.395,0.1-2.071-0.997-2.756-1.847
		c-3.769-4.677-7.473-9.406-11.156-14.149c-0.473-0.608-1.959-0.915-0.798-2.215c1.142-1.278,2.016-0.699,2.831,0.301
		c4.334,5.313,8.677,10.62,12.951,15.981C195.811,213.926,194.972,214.469,193.778,214.651z"/>
	<path fill-rule="evenodd" clip-rule="evenodd" fill="#FDFDFD" d="M31.438,214.775c-0.395-1.033-0.849-1.864,0.198-3.026
		c2.07-2.299,3.828-4.88,5.723-7.338c0.771-1.001,1.325-2.476,3.048-1.175c1.507,1.138-0.003,2.08-0.288,2.888
		c-0.556,1.576-4.108,2.646-0.322,4.705c0.886,0.481-0.751,1.742-0.897,1.637c-3.526-2.562-4.773,2.542-7.577,2.198
		C31.324,214.666,31.438,214.775,31.438,214.775z"/>
	<path fill-rule="evenodd" clip-rule="evenodd" fill="#FBFAFB" d="M28.464,201.74c-1.09-0.893-2.18-1.784-3.269-2.677
		c-0.721-0.592-2.702-0.433-1.489-2.196c0.715-1.038,1.565-0.441,2.483,0.074c1.328,0.746,2.628,2.659,4.386,0.27
		c0.526-0.716,1.631,0.53,1.633,1.096c0.006,2.2,0.827,3.717,2.971,4.312c1.054,0.293,1.396,0.855,0.868,1.728
		c-0.521,0.86-1.073,1.319-2.253,0.419c-1.653-1.26-3.618-2.11-5.449-3.135C28.348,201.629,28.464,201.74,28.464,201.74z"/>
	<path fill-rule="evenodd" clip-rule="evenodd" fill="#FE383E" d="M30.518,174.678c2.89,0.813,4.71,2.722,5.664,5.521
		C33.678,178.99,31.82,177.119,30.518,174.678z"/>
	<path fill-rule="evenodd" clip-rule="evenodd" fill="#FCFBFB" d="M121.027,219.727c-2.839,0.238-6.296,2.319-5.698,7.173
		c0.068,5.033,2.92,8.712,6.795,8.768c3.724,0.053,6.211-2.637,6.212-6.72C128.337,224.58,124.417,219.444,121.027,219.727z
		 M122.632,232.792c-3.457-0.034-4.038-2.853-4.25-5.534c-0.149-1.89-0.569-4.603,2.363-4.467c3.485,0.161,3.814,3.447,4.537,5.465
		C125.456,230.886,124.976,232.815,122.632,232.792z"/>
	<path fill-rule="evenodd" clip-rule="evenodd" fill="#FDFDFD" d="M158.786,212.17c-1.123-2.235-1.994-2.945-4.445-1.618
		c-2.525,1.367-5.365,2.204-8.138,3.039c-1.224,0.368-2.923,0.512-2.219,2.034c1.126,2.436,1.63,5.332,3.593,7.041
		c0.664-0.033,0.848,0.003,0.992-0.057c2.383-0.971,4.723-2.063,7.147-2.913C161.677,217.604,161.571,217.708,158.786,212.17z
		 M150.023,219.319c-2.051,0.834-2.144-1.913-1.991-2.408c0.969-3.137,4.393-2.593,6.656-3.837c1.967-1.08,1.146,1.948,2.947,2.131
		C155.454,217.979,152.497,218.314,150.023,219.319z"/>
	<g>
		<path fill="#FCFCFC" d="M20.235,207.618c0.037,0.043,0.068,0.089,0.104,0.133c0.005-0.006,0.009-0.012,0.015-0.018L20.235,207.618
			z"/>
		<path fill="#FCFCFC" d="M31.324,214.666c0.013,0.043,0.018,0.082,0.029,0.124c0.029-0.006,0.057-0.009,0.086-0.015L31.324,214.666
			z"/>
		<path fill="#FCFCFC" d="M31.353,214.79c-2.075,0.413-3.771,0.1-5.94-0.822c-3.173-1.349-3.437-4.171-5.074-6.217
			c-6.035,7.239-6.029,7.244,2.011,11.921c0.42,0.244,0.818,0.529,1.246,0.758c1.287,0.688,2.566,2.778,4.011,1.286
			C29.419,219.843,32.288,218.225,31.353,214.79z M18.596,214.028c3.209,0.133,3.657,0.353,8.01,3.932
			C24.21,218.106,22.059,217.05,18.596,214.028z"/>
	</g>
	<g>
		<path fill="#FCFCFC" d="M28.348,201.629c0.021,0.034,0.047,0.068,0.07,0.103c0.017,0.003,0.03,0.005,0.046,0.008L28.348,201.629z"
			/>
		<path fill="#FCFCFC" d="M20.354,207.733c-0.002-0.034-0.003-0.065-0.006-0.1c-0.037-0.006-0.077-0.008-0.112-0.016
			C20.235,207.618,20.354,207.733,20.354,207.733z"/>
		<path fill="#FCFCFC" d="M28.417,201.732c-8.25-1.455-8.389,0.645-8.07,5.901c0.582,0.099,1.279,0.063,1.66,0.392
			c2.611,2.26,5.795,4.253,8.553,1.432C33.418,206.534,29.986,204.129,28.417,201.732z M25.966,207.645
			c-1.542,0.012-2.462-0.834-2.661-2.332c-0.175-1.318,0.612-1.738,1.988-1.594c0.829,0.847,2.879,0.305,3.018,2.366
			C28.439,207.997,27.048,207.636,25.966,207.645z"/>
	</g>
	<path fill-rule="evenodd" clip-rule="evenodd" fill="#FFFFFF" d="M201.305,112.987c-1.946-27.207-15.41-54.22-43.314-64.063
		c-15.539-5.481-30.787-3.303-45.792,2.346c-6.006,2.261-11.819,4.989-17.268,8.373c-2.238,1.39-2.728,0.514-2.551-1.426
		c0.333-3.652-0.745-7.111-1.312-11.389c-0.039-0.01-0.073-0.024-0.115-0.032c-4.434,8.362-8.804,16.104-14.604,22.873
		c-3.407,3.977-7.364,7.542-7.495,13.406c-0.02,0.91-1.202,2.102-2.145,2.63c-3.373,1.891-5.096,5.032-7.184,8.086
		c-4.011,5.863-4.167,6.565,1.427,12.633c0.847-2.058-0.344-4.516,1.815-6.168c1.926,3.431,3.312,2.835,4.278-0.786
		c0.415-1.555,1.021-3.374,3.305-1.587c1.515,1.186,1.875,0.226,2.04-1.229c0.605-5.311,4.79-6.899,9.008-7.806
		c2.779-0.597,6.795-1.481,5.97,4.023c-0.164,1.091,0.4,2.027,1.351,2.474c2.592,1.218,2.064,3.626,1.179,5.068
		c-1.696,2.767-1.601,5.191,0.073,8.061c1.702-3.617,5.186-6.286,4.427-10.95c-0.306-1.881,1.249-3.536,2.777-3.528
		c1.953,0.01,2.042,2.147,2.162,3.823c0.269,3.775-0.831,7.145-2.914,10.243c-0.493,0.733-1.867,1.993-0.545,2.293
		c4.844,1.097-0.187,3.203,0.909,4.957c2.852,0.083,5.635-1.264,8.494-2.063c2.294-0.641,2.271-2.279,1.587-4.343
		c-1.305-3.934-1.786-8.011-1.561-12.189c0.279-5.186,2.657-9.082,6.834-11.997c1.125-0.785,3.168-0.648,3.107-2.62
		c-0.071-2.322-2.244-2.587-3.821-3.358c-0.422-0.206-0.942-0.21-1.492-0.322c4.235-2.412,9.11-3.323,19.139-1.594
		c8.103,1.398,16.064,3.967,20.858,11.717c2.662,4.305,1.969,6.53-2.898,8.069c-6.848,2.165-14.144,2.819-20.68,6.054
		c-5.663,2.802-6.971,5.855-5.723,12.063c1.837,9.133,0.678,18.055-2.723,26.646c-0.58,1.465-1.031,4.559-2.842,3.91
		c-2.232-0.8-4.436-2.725-4.771-5.822c-0.542-5.013,1.931-8.828,4.417-12.765c1.996-3.158,2.77-6.326-1.762-9.275
		c-0.123,0.045-0.231,0.101-0.326,0.166c2.673,7.324-4.491,9.721-5.929,14.737c-2.863-2.284-0.81-4.646-0.04-6.773
		c2.352-6.5,1.551-7.758-6.099-7.729c3.949,2.374,3.334,5.361,1.198,7.715c-2.584,2.847-2.648,5.276-0.765,8.43
		c1.52,2.545,0.703,5.287-2.1,6.025c-4.435,1.168-6.254,4.603-8.167,7.979c-1.444,2.549-3.261,4.402-6.292,5.305
		c2.721,2.177,5.042,2.023,7.134-0.38c0.964-1.106,1.721-2.391,2.621-3.556c6.214-8.043,9.932-7.732,15.426,1.072
		c1.483,2.378-0.488,3.087-1.648,3.842c-8.499,5.536-17.998,7.648-27.888,6.202C63.274,158,48.799,150.822,37.15,138.07
		c-15.18-16.617-18.657-36.851-9.256-57.48c4.851-10.647,11.901-19.69,20.473-27.597c0.349-0.322,0.588-0.776,1.216-1.779
		c-0.052-0.094-0.097-0.187-0.17-0.282c-0.08-0.104-0.164-0.172-0.246-0.253c-5.603,2.642-9.166,6.26-12.715,9.544
		C22.644,72.997,13.028,88.634,10.65,107.339c-2.876,22.617,2.629,43.61,16.799,61.924c0.79,1.02,2.12,1.736,1.677,3.358
		c-0.001-0.001-0.002-0.002-0.002-0.003c0,0.001,0.001,0.002,0.002,0.003c0.464,0.686,0.929,1.371,1.393,2.057
		c2.126,1.595,3.942,3.509,5.663,5.52c2.838,2.505,5.458,5.227,8.581,7.443c16.966,12.045,35.727,19.168,56.555,19.931
		c14.374,0.525,28.192-2.706,41.668-7.763c12.336-4.629,23.3-11.421,32.854-20.303c8.357-7.771,14.228-17.485,19.073-27.789
		C199.466,139.207,202.263,126.373,201.305,112.987z M84.181,76.936c-1.508,4.416-5.135,5.784-9.748,6.183
		c1.209-4.095,3.216-7.093,7.065-8.466c0.805-0.287,1.639-1.651,2.458-0.52C84.435,74.793,84.467,76.098,84.181,76.936z"/>
	<path fill-rule="evenodd" clip-rule="evenodd" fill="#FFFFFF" d="M37.235,68.975c7.061-9.23,14.549-17.834,22.726-25.898
		c-11.099,3.56-19.351,11.359-29.157,19.096c2.362-4.691,3.526-8.557,4.308-12.491c0.435-2.189,1.898-2.994,3.495-3.801
		c10.928-5.519,22.193-9.949,34.665-10.197c2.805-0.056,5.407-1.939,8.572-0.589c-6.538,2.703-12.856,5.53-18.531,9.677
		c-5.413,3.954-8.954,8.979-11.019,15.311C50.058,66.941,44.236,70.345,37.235,68.975z"/>
	<g>
		<g>
			<path fill="#FFFFFF" d="M209.428,104.283c-0.301-44.808-29.576-84.658-72.211-98.418C96.377-7.315,50.413,7.192,23.479,40.199
				C-5.084,75.201-6.53,126.139,18.662,163.3c24.578,36.256,70.3,52.166,112.355,41.586
				C176.728,193.386,209.113,151.168,209.428,104.283c0.004-0.601-2.892-0.15-2.898,0.777
				c-0.321,48.092-34.503,90.844-82.009,100.155c-46.97,9.206-94.465-17.633-113.043-61.162
				C-7.053,100.634,8.026,49.11,45.767,21.373C85.409-7.763,141.258-1.952,176.001,31.926
				c19.619,19.131,30.346,45.865,30.528,73.134C206.534,105.671,209.434,105.205,209.428,104.283z"/>
		</g>
	</g>
</g>
</svg>
