<svg xmlns="http://www.w3.org/2000/svg" viewBox="0 0 40.832 40.832"><g fill="#010002"><path d="M37.895 37.511c-2.133-1.492-3.155-2.271-5.113-3.878-.32.472-.693.936-1.135 1.347a7.988 7.988 0 0 1-.928.728 8.214 8.214 0 0 1-.699.414c2.154 1.818 3.285 2.696 5.652 4.377.881.586 2.121.377 2.729-.459.61-.834.364-1.963-.506-2.529zm-6.113-4.964c.033-.051.074-.1.107-.152.25-.4.463-.803.612-1.186a7.14 7.14 0 0 0 .345-1.147c.062-.298.072-.493.072-.493s-.195.012-.492.073c-.302.06-.703.171-1.148.344-.514.2-1.061.509-1.592.886-.164-.121-.334-.229-.496-.353a75.322 75.322 0 0 1-5.788-4.896 76.496 76.496 0 0 1-2.267 2.252 63.853 63.853 0 0 0 6.371 5.213c-.318.479-.58.964-.757 1.422a7.183 7.183 0 0 0-.342 1.148c-.062.299-.072.494-.072.494s.195-.01.494-.072a7 7 0 0 0 1.149-.342 7.038 7.038 0 0 0 1.162-.613c.222-.141.444-.279.662-.444.307-.233.607-.481.885-.759a8.365 8.365 0 0 0 1.095-1.375zM4.691 7.622l.537.811c3.65 5.515 7.659 10.931 12.23 15.783a88.239 88.239 0 0 0 2.262-2.241c-3.486-3.659-6.683-7.6-9.646-11.707-.865-1.199-1.609-2.382-2.323-3.456C6.412 5.091 5.1 3.437 3.619 1.793 3.317 1.458 2.185.58 2.094.102c.002.009.172.898.628 2.393.498 1.633.924 3.746 1.969 5.127zM38.248 0l-.004.006.413.078zM9.184 34.981a7.823 7.823 0 0 1-1.135-1.347c-1.958 1.608-2.981 2.386-5.114 3.878-.867.566-1.113 1.693-.506 2.529.374.514.988.791 1.611.791.388 0 .78-.108 1.118-.334 2.367-1.68 3.498-2.558 5.653-4.375-.235-.129-.47-.258-.7-.414a7.79 7.79 0 0 1-.927-.728z"/><path d="M22.688 24.942c4.859-5.033 9.082-10.718 12.916-16.509l.537-.811c1.045-1.381 1.47-3.494 1.969-5.127.457-1.496.627-2.384.628-2.393-.091.479-1.224 1.356-1.525 1.691-1.481 1.644-2.793 3.297-4.132 5.019-.714 1.074-1.458 2.258-2.322 3.457-3.16 4.379-6.582 8.569-10.342 12.429a87.5 87.5 0 0 1-2.273 2.245c-2.065 1.968-4.22 3.845-6.503 5.578-.162.123-.331.233-.495.353a7.595 7.595 0 0 0-1.592-.885 6.975 6.975 0 0 0-1.148-.345c-.298-.062-.493-.073-.493-.073s.011.195.073.493c.059.302.171.703.344 1.147a7.3 7.3 0 0 0 .613 1.186c.032.053.073.102.107.153.311.478.672.95 1.094 1.374.277.277.577.525.884.759.217.165.441.304.663.444.393.248.786.467 1.162.613.445.172.848.283 1.149.342.298.062.494.072.494.072s-.01-.195-.072-.494a6.994 6.994 0 0 0-.342-1.148 7.429 7.429 0 0 0-.758-1.419c2.511-1.79 4.865-3.775 7.093-5.898a84.636 84.636 0 0 0 2.271-2.253z"/></g></svg>