<svg xmlns="http://www.w3.org/2000/svg" viewBox="0 0 38.648 38.648"><path d="M5.002 19.865c-.159-.594-.337-1.248-.396-1.452a11.602 11.602 0 0 1-.153-.583 9.057 9.057 0 0 0-.09-.372.251.251 0 0 1 .076-.257c.148-.118.948-.292 1.019-.222.029.029.188.562.355 1.186l.804 2.996c.275 1.024.632 2.353.792 2.956l.594 2.228.151.567c.167.623.11.753.058.982l-.093.415c-.103.456-.212.855-.243.886-.031.03-.125.04-.21.02-.13-.03-.203-.217-.47-1.199-.174-.64-.448-1.656-.608-2.258-.3-1.13-.525-1.96-.667-2.466-.045-.16-.205-.754-.356-1.319l-.563-2.108zm4.103 11.424c-.097-.036-.194-.047-.214-.024-.021.023-.111.426-.202.895-.142.737-.146.911-.028 1.281.075.237.141.434.146.439.101.101.419.153.596.096.182-.058.252-.119.335-.29.112-.232.054-.595-.272-1.705-.157-.533-.21-.635-.361-.692zm-.863-.181a3.517 3.517 0 0 0-.476.113c-.207.06-.665.19-1.019.287-.575.159-.676.211-.968.503-.332.332-.395.487-.313.775.058.203.301.359.563.362.188.002.284-.076 1.258-1.021.654-.635 1.017-1.021.955-1.019zm-.357.748c-.78.78-.91 1.001-.935 1.58-.011.277.239.543.539.575.41.043.579-.25.921-1.593.168-.658.283-1.218.256-1.245-.029-.029-.351.253-.781.683zm3.496-14.894c-.022.021-.118.343-.214.714-.174.672-.543 2.053-.683 2.562-.041.147-.202.748-.359 1.335-.157.587-.442 1.65-.635 2.362-.193.712-.478 1.774-.634 2.362-.157.588-.324 1.206-.372 1.374s-.158.591-.245.94-.13.665-.095.701c.047.049.243-.114.794-.666.658-.658.738-.761.801-1.022.071-.296.553-2.108.701-2.636.045-.161.21-.772.368-1.36.328-1.225 1.279-4.75 1.378-5.109l.195-.703c.071-.254.12-.497.11-.54-.019-.085-1.047-.376-1.11-.314zM6.727 30.638c-1.041-.268-1.106-.274-1.528-.137-.399.129-.45.164-.534.365-.051.122-.077.282-.058.354.061.232.353.471.559.456.25-.018 2.648-.67 2.648-.72-.001-.021-.49-.164-1.087-.318zm31.8-2.526l-.076-.991c-.097-1.283-.512-3.451-.991-5.173-.812-2.921-2.327-6.184-3.988-8.591-1.067-1.546-1.429-2.002-2.764-3.48-1.225-1.357-3.392-3.326-4.475-4.068-1.354-.927-1.754-1.192-2.318-1.533-1.815-1.099-5.034-2.535-6.574-2.932a23.57 23.57 0 0 1-.943-.272c-.284-.089-.804-.22-1.157-.29a11.547 11.547 0 0 1-.754-.169c-.112-.041-.443-.1-1.604-.288C11.361.079 8.979-.049 7.182.018 5.254.09 2.827.447.918.938l-.47.121c-.259.067-.438.241-.399.39l.071.269c.133.505.749 2.793 1.755 6.523l.784 2.913c.191.713.388 1.44.438 1.616.05.176.251.922.447 1.658l.518 1.944c.089.333.167.611.173.616.006.006.322-.066.702-.16 4.197-1.036 8.362-.193 11.855 2.399 1.031.765 2.29 2.093 2.987 3.15 1.641 2.49 2.345 4.749 2.41 7.739.016.736-.138 2.331-.271 2.8-.033.119.132.17 2.977.928a1433.551 1433.551 0 0 0 6.569 1.749c.291.077 1.146.307 1.902.511.755.205 1.505.403 1.665.44s.825.216 1.477.397 1.209.305 1.238.276c.057-.056.465-2.094.569-2.838.287-2.06.364-4.335.212-6.267zm-23.852-.172c-.7.198-1.126.314-2.373.645-.397.106-.73.201-.741.211a2.192 2.192 0 0 1-.331.091c-.171.039-.508.129-.749.199l-.976.282c-.296.085-.526.167-.511.182s.49.15 1.055.3c.917.243 1.069.26 1.419.161.216-.061 1.139-.312 2.051-.557l3.235-.872a1285.052 1285.052 0 0 1 3.98-1.07c.147-.041.397-.106.557-.144.159-.038.312-.093.34-.122s-.012-.292-.089-.586c-.169-.647.081-.642-2.031-.046-.198.056-1.088.298-1.977.539-1.794.487-1.891.513-2.859.787zm23.016 9.577c-.003.019-.061.26-.131.537-.128.509-.203.657-.289.571-.026-.026-.323-.118-.66-.205-.739-.19-2.313-.609-4.068-1.083a609.604 609.604 0 0 0-3.645-.976 631.77 631.77 0 0 1-2.104-.565 455.627 455.627 0 0 0-3.647-.974c-.403-.106-.87-.231-1.038-.279s-.786-.215-1.373-.372l-2.108-.563c-.572-.153-1.316-.348-1.653-.435s-.621-.166-.63-.175a9.384 9.384 0 0 0-.616-.171c-.636-.163-3.636-.965-4.134-1.105-.162-.046-.448-.118-.634-.16s-.349-.087-.36-.098c-.021-.02-1.103-.319-1.417-.391a25.857 25.857 0 0 1-.529-.139c-.222-.061-.729-.196-1.126-.301-.398-.105-.733-.201-.746-.214s-.128-.041-.255-.064c-.45-.079-1.704-.456-1.781-.535a.919.919 0 0 1-.119-.251c-.125-.382.177-.805.557-.779.152.011.61.13 3.639.948.711.192 1.75.47 2.308.618s1.852.494 2.875.77 2.226.598 2.672.717l2.309.618c.824.222 2.227.598 3.118.836s1.747.468 1.902.511c.274.076 1.096.296 2.673.716.424.112 1.608.43 2.631.706s2.535.681 3.36.901 1.644.44 1.821.489c.176.049.777.211 1.335.359 1.628.433 1.868.502 1.863.538zM8.458 29.885c-.288-.06-.42.014-.431.242a.372.372 0 0 0 .404.407c.399-.02.422-.567.027-.649zm9.556-9.287l-.205-.205c-.113-.113-.595.184-1.075.665l-3.725 3.725c-2.527 2.527-4.576 4.615-4.553 4.638.023.023.505-.088 1.07-.248l.513-.145c.284-.08.903-.535 1.384-1.016l3.066-3.066 3.066-3.066c.481-.481.778-.962.665-1.076l-.206-.206z" fill="#010002"/></svg>