<svg xmlns="http://www.w3.org/2000/svg" viewBox="0 0 56.685 56.685"><g fill="#010002"><path d="M16.76 32.721c-.003.004-.006.008-.009.015L.064 30.224 0 30.698l16.728 2.067a3.136 3.136 0 0 0 4.671 4.185 3.143 3.143 0 0 0-.204-4.437 3.14 3.14 0 0 0-4.435.208z"/><path d="M36.299 34.463l-4.332.199a12.246 12.246 0 0 0-2.08-1.178l2.9-3.182c1.253-1.375-.879-3.317-2.133-1.944-1.269 1.389-2.53 2.774-3.794 4.163a17.189 17.189 0 0 0-1.176-.203c-3.457-.475-4.62 4.855-1.128 5.334 2.027.277 3.78.807 5.24 2.287 1.271 1.289 1.541 3.318 1.596 5.08-1.016 1.229-2.266 2.229-3.784 2.857-1.708.713-.858 3.471.859 2.758a13.107 13.107 0 0 0 4.268-2.854c.385.188.821.277 1.266.275a83.03 83.03 0 0 1-.041 1.723c-1.604.594-3.242 1.061-4.938 1.328-1.825.287-1.657 3.173.18 2.881a29.952 29.952 0 0 0 6.646-1.844c.729-.295.979-.957.903-1.567.035-.144.064-.289.07-.438.057-1.463.101-2.928.018-4.391-.001-.021-.01-.038-.012-.061.019-.131.025-.266.024-.405-.028-2.763-.614-5.562-2.176-7.856.586-.027 1.173-.057 1.759-.082 1.859-.083 1.724-2.967-.135-2.88z"/><circle cx="34.162" cy="8.053" r="2.682"/><path d="M20.265 26.088l1.114-5.597a80.498 80.498 0 0 0 3.136-.373c.414.483.87.964 1.366 1.415-.798 1.056-1.63 2.088-2.424 3.122a445.045 445.045 0 0 1-3.797 4.874c-.925 1.173.721 2.842 1.658 1.656a662.567 662.567 0 0 0 3.85-4.939c.848-1.102 1.739-2.202 2.593-3.327 1.489.853 3.201 1.257 5.065.678l-1.809-5.199 3.735-4.027c.18-.192.299-.395.387-.601l4.888 1.157c1.471.348 2.094-1.912.623-2.26l-6.61-1.565c-.036-.008-.069-.008-.103-.014-.643-.261-1.396-.189-2.017.48l-3.871 4.174-6.119.555s.35.705.986 1.682c-.817.1-1.636.189-2.458.256a1.167 1.167 0 0 0-1.003.708 1.077 1.077 0 0 0-.263.533L18 25.465c-.288 1.475 1.969 2.103 2.265.623zM37.242 4.886c.145-.081.287-.157.414-.211.123-.054.25-.079.262-.049.008.012-.03.028-.066.025-.037-.002-.051-.008-.048.009 0 .013.021.062.026.085l.02.053c-.003-.004.01.028.014.039l.031.103.287.907c.215.635.512 1.349 1.082 1.918.283.28.639.505 1.018.614.377.108.767.111 1.115.006-.312-.196-.576-.387-.781-.606a2.83 2.83 0 0 1-.48-.692c-.253-.492-.41-1.063-.618-1.686a7.346 7.346 0 0 0-.39-.979l-.07-.126-.039-.075-.035-.059a1.55 1.55 0 0 0-.256-.329c-.107-.105-.257-.219-.447-.282s-.401-.058-.561-.013a1.132 1.132 0 0 0-.377.182 1.52 1.52 0 0 0-.245.218c-.139.149-.241.3-.337.452a6.215 6.215 0 0 0-.25.456 3.957 3.957 0 0 1-.121.223.74.74 0 0 1-.148.208c.191.017.375-.075.537-.146.165-.077.315-.165.463-.245zm-2.492-.517V3.243c0-.755-1.174-.755-1.174 0v1.126c0 .756 1.174.756 1.174 0zm21.935 14.488l-.144-.453L27.38 27.89zM33.66 32.23l18.207-.17-.009-.475zm-17.47-2.043L9.18 25.39l-.257.4zm26.446-2.051l-.101-.465-8.248 2.029z"/><path d="M4.474 12.205l-.349.322 15.314 16.275z"/></g></svg>