<svg xmlns="http://www.w3.org/2000/svg" viewBox="0 0 61.199 61.199"><path d="M31.604 10.922c2.969.777 6.001-1 6.773-3.968A5.55 5.55 0 0 0 34.41.181a5.553 5.553 0 0 0-6.776 3.97 5.548 5.548 0 0 0 3.97 6.771zm18.409 46.154l-1.099-2.668.486-.203-.193-.572c-2.125-6.23-4.308-13.594-5.741-18.594.393.729.805 1.447 1.243 2.146.5.801 1.334-.668.938-1.3a33.04 33.04 0 0 1-1.769-3.202c.068.016.135.032.203.051.697.16 1.086.537 1.395 1.184.111.238.252.346.516.354.381.008.821-.108 1.031-.465.108-.182.209-.354.26-.563a1.33 1.33 0 0 0 .037-.188c.008-.043.016-.072.021-.1.224-.289.305-.709.17-1.051-.141-.359-.535-.467-.826-.199a1.611 1.611 0 0 0-.425.631c-.298-.473-.673-.873-1.22-1.095-.619-.255-1.295-.273-1.881-.625a.471.471 0 0 0-.435-.046c-.146-.013-.296.075-.429.212a369.47 369.47 0 0 0-.416-3.646c2.029-1.194 4.012-2.588 6.046-4.252.786-.644 1.243-1.629 1.28-2.775.043-1.255-.424-2.465-1.248-3.238-3.16-2.964-6.938-3.883-10.942-4.856l-.272-.067a1.086 1.086 0 0 0-.359-.06c-.98 0-2.178 1.44-2.963 2.567-.68-1.009-1.604-2.101-2.412-2.101a.99.99 0 0 0-.514.142 6.213 6.213 0 0 0-1.648 1.431h-12.13v2.051h-3.406a2.35 2.35 0 1 0 0 4.701h3.406v1.668H28.21c.482 3.295.922 6.758 1.308 10.307-3.809.97-7.554 2.521-11.139 4.621-1.073.629-1.73 1.58-1.859 2.688a4.2 4.2 0 0 0-.262 1.043l-1.57 12.871 1.058.201-.465 2.723a2.985 2.985 0 0 0 5.883 1.005l.446-2.617 1.074.205 1.472-12.041c3.491-1.818 9.079-4.146 10.292-4.65.564.09 1.151.107 1.739.053l6.511 18.254.713-.297 1.084 2.635a2.983 2.983 0 1 0 5.518-2.273zM29.411 21.604l-.083-.553H18.014v-.373h.033l-.033-.039v-4.633l.033-.029h-.033v-.755h11.491l.193-.273a4.816 4.816 0 0 1 1.348-1.269c.373.216 1.191 1.252 1.805 2.301l.543.925.565-.911c.863-1.386 1.998-2.703 2.402-2.807l.352.086c3.832.931 7.449 1.812 10.363 4.543.547.514.867 1.375.838 2.249-.025.767-.312 1.412-.806 1.815a46.706 46.706 0 0 1-5.495 3.895l-1.381-5.845-1.261.297.184.772-3.539 1.442a2.348 2.348 0 0 0-1.289 3.064 2.348 2.348 0 0 0 3.062 1.29l2.919-.919.242 1.025c.165 1.356.319 2.713.468 4.07H30.631a279.19 279.19 0 0 0-1.22-9.368zm14.046 33.683L37.05 37.314l-.537.092a5.809 5.809 0 0 1-2.021-.01l-.188-.035-.178.072c-.721.295-7.156 2.95-10.878 4.932l-.297.158-1.386 11.338-5.445-1.031 1.424-11.67c.035-.279.102-.539.208-.789l.047-.195c.063-.73.49-1.348 1.235-1.781 3.648-2.137 7.462-3.69 11.338-4.617l.554-.133-.06-.565c-.006-.052-.011-.103-.018-.154h10.669c1.312 4.646 3.812 13.279 6.269 20.554l-4.329 1.807z" fill="#fff"/></svg>