<svg xmlns="http://www.w3.org/2000/svg" viewBox="0 0 280.346 280.346"><path d="M276.901 48.144l-9.43 11.395C254.776 74.879 246.96 93.296 244.735 113a22.443 22.443 0 0 1 6.935 14.318c.437 4.832.048 15.764-8.13 34.696-9.893 22.903-40.073 37.493-42.911 39.042a15.043 15.043 0 0 1-7.874 2.241c-3.092 0-6.21-.952-8.889-2.927a293.584 293.584 0 0 1-46.437-42.66l-7.046-8.034a15.132 15.132 0 0 1-1.27-1.699c-.012-.013-.025-.024-.037-.038l-7.046-8.034a263.464 263.464 0 0 0-23.662-23.714l-.082.135c-5.803 3.274-25.79 21.641-23.939 38.551 18.418 25.494 27.045 56.387 24.397 88.058-.69 8.255-7.918 14.378-16.198 13.698-8.255-.69-14.388-7.942-13.698-16.198 1.4-16.741-1.276-33.202-7.665-48.237-4.962 17.378-13.475 33.571-25.199 47.737l-9.43 11.395a14.97 14.97 0 0 1-11.564 5.437 14.93 14.93 0 0 1-9.555-3.444c-6.382-5.281-7.274-14.736-1.992-21.119l9.43-11.395c13.47-16.276 21.453-36.014 23.086-57.079l.023-.292a22.386 22.386 0 0 1-5.606-12.922c-.438-4.831.052-15.763 8.229-34.695 9.07-20.999 36.327-35.679 42.984-39.183.42-.249.85-.477 1.29-.682 4.819-2.255 10.689-1.87 15.272 1.51a293.612 293.612 0 0 1 46.435 42.659l7.046 8.034c.474.541.886 1.113 1.269 1.698.012.014.026.025.038.039l7.046 8.034a263.567 263.567 0 0 0 23.649 23.701c5.442-3.658 14.913-10.334 18.696-17.461 5.764-10.859 4.764-16.42 4.674-17.332-19.108-25.754-28.1-57.185-25.405-89.426.69-8.255 7.918-14.378 16.198-13.698 8.255.69 14.388 7.942 13.698 16.198-1.4 16.741 1.276 33.202 7.665 48.237 4.962-17.378 13.475-33.571 25.199-47.737l9.43-11.395a14.97 14.97 0 0 1 11.564-5.437 14.93 14.93 0 0 1 9.555 3.444c6.383 5.282 7.275 14.737 1.993 21.12zM130.809 77.706c12.5-2.5 20.606-14.66 18.105-27.159-2.5-12.5-14.66-20.606-27.159-18.105-12.5 2.5-20.606 14.66-18.105 27.159 2.499 12.499 14.659 20.605 27.159 18.105zm20.401 122.422c-12.5 2.5-20.606 14.66-18.105 27.159 2.5 12.5 14.66 20.606 27.159 18.105 12.5-2.5 20.606-14.66 18.105-27.159-2.5-12.5-14.66-20.606-27.159-18.105z" fill="#fff"/></svg>