<svg xmlns="http://www.w3.org/2000/svg" viewBox="0 0 42.343 42.343"><g fill="#fff"><path d="M31.002 22.26c.338.111.115-.545-.498-1.465l-.371-.559c-.612-.919-.871-1.638-.579-1.606.293.032-.009-.39-.673-.943-.664-.553-.996-1.044-.743-1.096s-.362-.454-1.367-.912c-1.921-.875-3.76-1.842-4.983-3.473-.35-.514-.455-.957-.387-1.351.136-.784.891-1.029 1.021-.853l.237.318c.469.742 1.266 1.311 2.946 1.416 1.095.096 1.772.721 2.405 1.412.311.299.621.502.933.59.593.169.886-.278.657-.414-.229-.137-1.059-.464-.811-.954s.842-1.129.887-1.602c.044-.474-.672-.883-.984-1.131l-.566-.448a1.564 1.564 0 0 0-.59-.233c-.348-.061-.797-.317-1.168-.492-.371-.174-1.229-.219-1.181-.544.015-.104.216-.208.487-.312.65-.201 1.304-.168 1.957.189.539.347 1.287.456 2.07.579 1.092.171 2.185.398 2.399.177.215-.221.291-1.156.291-2.002s-.894-1.275-1.988-1.424c-2.276-.309-2.786-2.331-3.815-3.733-.654-.89-1.364-.496-1.899-.321-.22.072-.539-.035-.944-.298-.291-.223-.58-.441-.869-.624-.499-.316-.194.635-.954.853-.759.218-1.563-.98-2.084-1.003s-.229.302.109.857c.232.381.103.79-.518.626a3.675 3.675 0 0 0-1.631.044c-.877.236-1.1.807-.69.84.41.032 1.312.102 1.587.605.172.314.026.62-.56.513-.383-.041-.68.024-.918.162-.454.262-.073.282.409.624.194.138.125.457-.283.923-5.099 5.821 3.095 10.341 5.379 16.077.409 1.026.057 1.155-.558.237-5.772-8.608-12.18-10.066-19.096-5.798-.94.58-.77.986.329.868.975-.105 1.951-.142 2.927.058 1.089.323 2.048.688 1.256 1.17-1.92 1.131-4.122 2.25-4.974 3.433-.646.896-.271.783.55.044.76-.684 2.127-1.115 3.77-1.432 1.085-.209 2.38-.538 2.924-.57.428-.025.533.201.336.662a26.605 26.605 0 0 0-.737 1.826c-.372 1.022.03 1.253.94.626 10.759-7.406 16.723 12.156 7.102 7.268-.985-.5-1.319-.205-.589.623 4.049 4.602 10.501-.012 9.276-8.461-.159-1.093.056-1.184.451-.152 1.35 3.517.865 7.063-.905 9.981-.972 1.945-6.745 5.241-2.324 10.175.737.823.97.618.438-.351-1.146-2.088-1.571-3.902 1.215-5.856 2.076-1.232 4.244-3.943 5.098-8.238.217-1.082.779-1.207 1.027-.131.162.705.24 1.455.295 2.215.08 1.103.229 1.103.244-.002.027-1.818-.152-3.655-.676-5.52-.298-1.062-.376-1.798-.039-1.687zM24.771 2.568a.833.833 0 1 1 0 1.666.833.833 0 0 1 0-1.666z"/><path d="M39.125 14.646a4.158 4.158 0 0 1-.693-.222c-1.016-.435-.393-1.401-1.096-2.254-.055-.066-.107-.133-.16-.201-.676-.872-1.506-.378-2.383-1.049a4.208 4.208 0 0 1-.391-.345c-.787-.774-1.922-.692-3.017-.836a11.594 11.594 0 0 1-.884-.16c-1.08-.232-1.227.096-.291.683.793.498 1.595.996 2.141 1.475.83.729.885 1.938 1.418 1.637s1.384-.322 2.07.543c.847 1.067 1.863 2.241 3.539 1.744 1.06-.315.826-.767-.253-1.015z"/></g></svg>