<svg xmlns="http://www.w3.org/2000/svg" viewBox="0 0 36.17 36.17"><path d="M17.131.612l-3.749 2.817 2.402 3.198 3.749-2.817A2 2 0 0 0 17.131.612zM2.167 11.855a2 2 0 0 0 2.402 3.198l10.085-7.577-2.402-3.198-10.085 7.577zm31.637 2.523c.021-.08.049-.157.049-.243v-.999a1 1 0 0 0-.973-1 1 1 0 0 0 .965-1.008l-.013-1.006a.998.998 0 0 0-.986-.984 1 1 0 0 0 .924-1.048c-.02-.359-.041-.702-.068-1.029a1 1 0 0 0-1.054-.915 1 1 0 0 0 .761-1.188 8.655 8.655 0 0 0-.305-1.084.998.998 0 0 0-1.277-.604l-.041.015.062-.06a.998.998 0 0 0-.054-1.413 4.84 4.84 0 0 0-1.021-.719 1.004 1.004 0 0 0-1.354.415c-.008.016-.016.031-.021.047v-.001a1 1 0 0 0-.795-1.17 15.734 15.734 0 0 0-1.056-.16.997.997 0 0 0-1.109.862 1 1 0 0 0-.957-1.018c-.323-.014-.661-.024-1.014-.035-.523 0-.991.399-1.026.933a1 1 0 0 0-.993-.962L21.446 0h-.003a1 1 0 0 0-.003 2l.996.004h.006a1 1 0 0 0 .998-.933c.02.522.441.946.972.962.342.009.67.02.983.033.53.054.968-.358 1.034-.867a1 1 0 0 0 .882 1.011c.326.039.632.084.917.139.458.083.904-.154 1.094-.559a1 1 0 0 0 .514 1.07c.232.123.43.26.601.418a1 1 0 0 0 1.056.193 1 1 0 0 0-.268 1.076c.091.254.167.53.232.832a.985.985 0 0 0 1.033.788 1 1 0 0 0-.777 1.059c.025.306.046.627.062.965.027.529.462.942.985.949a1 1 0 0 0-.924 1.013l.012.992c.005.54.438.977.973.991a1.002 1.002 0 0 0-.967.999v1c0 .068.026.128.039.192a1.99 1.99 0 0 0-1.02 1.251l-1.224 4.528 3.861 1.043 1.222-4.527a1.993 1.993 0 0 0-.928-2.244zm-7.815 19.271a1.999 1.999 0 0 0 1.409 2.451 1.997 1.997 0 0 0 2.453-1.408l3.291-12.179-3.861-1.043-3.292 12.179z" fill="#030104"/></svg>