<svg xmlns="http://www.w3.org/2000/svg" viewBox="0 0 225.306 225.306"><path d="M120.083 146.272L13.544 39.733l.489-6.862 91.633 87.731-91.108-95.16L16.354 0l118.842 131.146-15.113 15.126zm29.53-21.099l-37.973 37.973 4.219 4.219 37.973-37.973-4.219-4.219zm58.367 93.525l-2.816 2.822c-5.054 5.048-13.235 5.048-18.277 0l-2.822-2.822c-.245-.245-.418-.513-.627-.77l-.077.072-54.847-54.847 21.105-21.099 54.841 54.847-.072.072c.257.221.537.388.776.632l2.816 2.816c5.042 5.042 5.042 13.229 0 18.277zm-55.891-60.827a5.474 5.474 0 0 0-7.739 0 5.463 5.463 0 0 0 0 7.739c2.13 2.13 5.597 2.13 7.739 0 2.124-2.13 2.124-5.602 0-7.739zm16.874 16.875a5.481 5.481 0 0 0-7.745 0c-2.136 2.13-2.136 5.597 0 7.739 2.136 2.13 5.597 2.13 7.745 0 2.13-2.13 2.13-5.597 0-7.739zm16.874 16.886a5.474 5.474 0 0 0-7.739 0c-2.13 2.13-2.13 5.597 0 7.739 1.575 1.575 3.878 1.969 5.842 1.211.054-.048.084-.113.131-.161l2.816-2.822c.06-.048.119-.084.167-.131.752-1.958.353-4.261-1.217-5.836z" fill="#010002"/></svg>