<svg xmlns="http://www.w3.org/2000/svg" viewBox="0 0 495.357 495.357" fill="#fff"><path d="M247.68 96.606c26.69 0 48.332-21.616 48.332-48.298C296.012 21.619 274.37 0 247.68 0c-26.675 0-48.314 21.619-48.314 48.307-.001 26.682 21.639 48.299 48.314 48.299zM377.132 269.06l-4.756-10.433c4.128-2.079 5.956-7.013 4.012-11.267l-60.267-132.838c-4.835-10.562-15.353-16.676-28.796-16.766-1.223-.024-11.355-.511-11.355-.511-2.324-.169-4.656.745-6.385 2.393a8.636 8.636 0 0 0-2.702 6.269h-39.159a8.7 8.7 0 0 0-2.7-6.284c-1.734-1.633-3.771-2.546-6.423-2.378 0 0-9.338.477-10.47.511-13.341.08-24.112 6.358-28.869 16.742l-61.017 132.813a8.614 8.614 0 0 0-.256 6.632 8.709 8.709 0 0 0 4.531 4.869l.32.147-4.607 10.101c-4.742 10.374-.166 22.638 10.225 27.368a20.462 20.462 0 0 0 8.555 1.876c7.845 0 15.33-4.497 18.813-12.091l4.639-10.159c4.238 1.731 9.159-.105 11.098-4.31l8.883-19.168s-.05.259-.05 200.646c0 4.779 3.863 8.652 8.669 8.671v8.667c0 13.694 11.094 24.797 24.783 24.797 13.698 0 24.797-11.103 24.797-24.797v-8.667c4.785 0 8.667-3.885 8.667-8.671h.743c0 4.786 3.883 8.671 8.669 8.671v8.667c0 13.694 11.114 24.797 24.796 24.797 13.688 0 24.795-11.103 24.795-24.797v-8.667c4.793-.019 8.658-3.892 8.658-8.671 0-219.239-.05-179.206-.05-199.555l8.089 17.978a8.656 8.656 0 0 0 11.501 4.328l.291-.129 4.724 10.368a20.682 20.682 0 0 0 18.809 12.091c2.861 0 5.791-.605 8.57-1.876 10.391-4.73 14.949-16.983 10.225-27.367zm-138.489 45.096c-4.793 0-8.674 3.881-8.674 8.661v121.744h-32.223V276.758h29.134l-16.012 38.966a8.659 8.659 0 0 0 4.724 11.316 8.681 8.681 0 0 0 3.299.656c3.394 0 6.63-2.03 8.008-5.38l18.147-44.143 27.515 28.131a8.658 8.658 0 0 0 6.195 2.602 8.616 8.616 0 0 0 6.048-2.466 8.622 8.622 0 0 0 2.618-6.201 8.642 8.642 0 0 0-2.472-6.06l-17.016-17.421h29.681v167.803h-32.221V322.817c0-4.78-3.881-8.661-8.673-8.661h-18.078zm75.521-104.427c-1.685-3.744-5.807-5.773-9.737-4.924a8.672 8.672 0 0 0-6.859 8.473v35.676h-99.769v-35.682a8.68 8.68 0 0 0-6.813-8.467c-3.941-.849-8.02 1.131-9.717 4.819l-21.789 47.003-21.856-9.971 57.412-124.946c2.603-5.7 9.394-6.591 13.226-6.616.307 0 1.604-.055 3.234-.135 4.049 16.003 18.573 27.878 35.816 27.878 17.242 0 31.767-11.891 35.813-27.902 1.987.089 3.684.159 4.042.159 3.801.025 10.562.916 13.165 6.616l56.697 124.94-21.79 9.937-21.075-46.858z"/></svg>