<svg xmlns="http://www.w3.org/2000/svg" viewBox="0 0 52.303 52.303"><g fill="#010002"><path d="M34.8 33.237c-.742-2.948-2.424-5.282-4.996-6.698.049-.187.082-.384.082-.604V21.64l4.502-1.462c1.293-.42.738-2.463-.562-2.04l-4.347 1.411-1.621 1.361s-1.305-1.34-1.379-1.301L21.76 18.46c-1.326-.322-1.888 1.718-.563 2.04l4.192 1.021v4.38c0 .229.036.433.087.624-2.586 1.413-4.276 3.754-5.021 6.712-.417 1.654 2.134 2.356 2.55.702.609-2.418 1.981-4.473 4.367-5.424.094-.037.179-.082.256-.133.078.051.162.096.257.133 2.385.951 3.757 3.006 4.366 5.424.242.963 1.205 1.124 1.888.768l6.169 16.975h.062l-6.025-17.104c.373-.286.606-.75.455-1.341zm-7.14-8.938a.309.309 0 1 1 0-.618c.17 0 .31.138.31.309a.313.313 0 0 1-.31.309zm0-.905a.308.308 0 1 1 0-.617c.17 0 .31.138.31.309a.312.312 0 0 1-.31.308z"/><circle cx="27.934" cy="17.818" r="1.918"/><path d="M17.953 13.904l-5.983.428a1.14 1.14 0 0 0-.235.041c-.466 0-.926.164-1.235.534-.791.951-1.582 1.908-2.276 2.933-.254.376-.298.829-.202 1.256-.003.049-.008.097-.005.15.159 2.4.468 4.782 1.035 7.123.325 1.338 2.385.771 2.06-.567a35.775 35.775 0 0 1-.766-4.452c1.321.857 2.669 1.668 4.076 2.382 1.225.624 2.307-1.22 1.078-1.845-1.393-.708-2.729-1.511-4.038-2.359.497-.719.963-1.274 1.621-2.064.274-.328.441-.714.49-1.106l4.38-.313c1.365-.102 1.375-2.239 0-2.141z"/><circle cx="13.608" cy="12.106" r="1.816"/><path d="M40.535 24.729a44.612 44.612 0 0 0 4.481-1.486 35.986 35.986 0 0 1-1.675 4.198c-.596 1.242 1.303 2.225 1.898.982 1.041-2.17 1.836-4.438 2.488-6.751a.666.666 0 0 0 .025-.147c.185-.397.234-.851.062-1.271-.466-1.147-1.041-2.248-1.617-3.343-.226-.426-.642-.682-1.098-.778a1.157 1.157 0 0 0-.221-.088l-5.766-1.66c-1.324-.382-1.76 1.711-.442 2.09l4.22 1.215c-.033.395.051.808.25 1.185.479.908.818 1.549 1.156 2.356-1.456.558-2.93 1.066-4.439 1.47-1.326.355-.653 2.383.678 2.028z"/><circle cx="43.744" cy="13.527" r="1.816"/><path d="M39.572 10.652c-.377.378-.455 1.146 0 1.511.608.487 1.219.974 1.873 1.396-.337-.227.219-1.724 1.078-1.845-.56-.361-.943-.666-1.439-1.062-.456-.363-1.066-.446-1.512 0zm12.107 36.359L39.732 31.08l-.412.317 12.359 15.7.624.792v-.046zm0-14.853l-5.737-3.451c-.012.024-.022.053-.036.076a1.835 1.835 0 0 1-.181.295l5.954 3.469v-.389zm-8.784-4.893c.05-.102.095-.205.144-.309l-2.479-1.493c-.028.004-.06.004-.089.006l-.239.404 2.612 1.521c.014-.041.028-.086.051-.129zm-7.601 4.421l8.791 18.329-8.554-18.439zM24.529 34.41l.651 16.907-.391-16.916zm-7.936-4.437L1.418 44.119l15.351-13.954zM1.418 25.825v.141l6.898-.458-.04-.195-6.858.512zm14.56-1.088l-4.314.322.052.222 4.28-.285-.018-.259zm-14.56-3.942v.124l6.318.959-.021-.187-6.297-.896zm12.259-2.859l2.843 2.279.32-.41-2.917-2.221c-.072.12-.152.238-.246.352zm-3.789-3.037l.199-.239-8.668-6.602L.032 7.001l1.387 1.113 8.469 6.785zm9.085-1.301l-7.702-12.18h-.063l7.39 12.024c.135.037.261.087.375.156zm.72 1.624l.22-.137-.232-.366c.01.068.023.133.026.204a1.86 1.86 0 0 1-.015.298l.001.001zm8.412-13.805h-.094l-.083 9.021h.26zm-4.042 9.899l-3.3-9.899h-.071l3.124 9.979zM20.8 13.401l.235-.114-5.885-11.87-.396-.796.378.796zm-3.693.043l-1.335-2.692 1.277 2.697zM32.32 16.53L44.085 1.417 31.913 16.205zm3.256-2.146l.354.381 2.89-2.762a1.532 1.532 0 0 1-.063-.496l-3.181 2.877zm5.412-4.453l8.787-8.397-9.18 8.308c.132.015.264.042.393.089zm5.271 4.034l4.59-2.454-4.574 2.352c-.004.034-.01.068-.016.102zm-6.846 3.425l-2.847 1.464.121.23 3.016-1.611zm-22.866-.529l-.691.049.673.638.355-.381zm-5.225-4.244a2.412 2.412 0 0 1-.038-.42c0-.043.004-.087.007-.131L1.418 3.064.005 1.776 0 1.899l1.418 1.342 9.904 9.376zm11.543-.292L16.558 1.417h-.122l6.202 11.037zm3.996-.86L22.937 1.417h-.162l3.844 10.141zm8.771-10.048h-.119l-4.559 11.266.245.097zM1.418 34.014l14.68-6.658-.222-.471-14.458 7.036zm16.865 10.105l1.777-10.37-.514-.076zm2.273 7.56h.179l2.772-16.747-1.009-.142zm9.527-17.242l4.461 17.242h.086l-4.297-17.306zm-2.025.577l3.709 16.665h.096l-3.549-16.721zm14.986-15.122l-3.297-.012v.26l3.418-.013c-.039-.078-.08-.154-.121-.235zm5.455.215l3.18-.012v-.17l-3.264-.012c.027.065.058.128.084.194zM10.391 45.874l.126.07 7.381-13.493-.229-.125zM48.223 22.66a41.78 41.78 0 0 1-.127.42l3.583.748v-.385l-3.456-.783zm-4.263 2.115l-.391-.211-.648.218.863.446c.061-.15.12-.301.176-.453zm2.828 2.004l4.893 2.526v-.373h-.001l-4.729-2.549a16.29 16.29 0 0 1-.163.396zm4.891 8.986l-10.646-6.846-.141.219 10.787 6.803z"/></g></svg>