<svg xmlns="http://www.w3.org/2000/svg" viewBox="0 0 62.332 62.332"><g fill="#010002"><circle cx="55.801" cy="22.977" r="6.531"/><path d="M49.847 28.748c-.02-.039-.046-.07-.064-.107l-8.92-17.716a3.302 3.302 0 0 0-5.897 2.968l4.605 9.149H25.057c-.758 0-1.445.111-2.063.312-5.11-6.781-10.745-13.132-16.732-19.159C2.925.836-2.259 6.023 1.075 9.38c6.302 6.345 12.278 13.024 17.516 20.281.14.193.291.362.447.518.04.336.103.668.191.993-.023.177-.04.357-.04.55v23.955c0 4.729 7.333 4.729 7.333 0V35.513h16.629c.882 0 1.66-.156 2.35-.424l1.861 4.032-1.75-.534a3.299 3.299 0 1 0-1.928 6.311l8.799 2.689a3.299 3.299 0 0 0 3.961-4.539l-6.597-14.3z"/></g></svg>