<svg xmlns="http://www.w3.org/2000/svg" viewBox="0 0 59.235 59.235"><g fill="#010002"><ellipse cx="28.594" cy="6.217" rx="6.341" ry="6.217"/><path d="M48.327 53.18l-8.168-8.023c.203-1.348.474-2.653.772-4.036 4.034-7.319.416-17.155-2.905-23.899-2.512-5.102-7.547-3.938-9.818-.342l-5.834-.667L20.02 9.01l.085-.034-.451-1.118-.055.021c-1.546-2.979-6.704-1.395-5.561 2.104l.041.125-1.222.493.451 1.117 1.146-.462 2.776 8.49c.454 1.389 1.49 2.04 2.889 2.2l7.168.821c.147.597.357 1.204.658 1.816.15.305.32.663.5 1.047-1.888-.247-3.771-.405-5.507-.678-3.711-.583-5.33 4.967-1.777 5.729l-.256 1.104 1.174.272.276-1.189c1.455.202 2.915.371 4.369.57 1.139.156 2.875.378 4.11.654.061.301.152 1.11.201 1.486 0 .088-.004.178-.004.264l-.002.004a.986.986 0 0 0-.023.131 9.74 9.74 0 0 0-.402 1.479L19.32 32.289c-.442-.124-.916.188-1.059.699-.143.51.098 1.022.539 1.147l11.443 3.213-4.475 6.695a3.248 3.248 0 0 0-.539 2.037l.732 10.143a3.246 3.246 0 1 0 6.474-.469l-.653-9.031 2.043-3.06a45.8 45.8 0 0 0-.319 2.321 3.244 3.244 0 0 0 .95 2.668l9.317 9.154a3.243 3.243 0 0 0 4.59-.041 3.239 3.239 0 0 0-.036-4.585zM31.371 33.077l.016-.055.044-.072-.06.127z"/><path d="M11.79 9.955c-.151-.433-.681-.641-1.181-.465-.499.176-.782.668-.63 1.101l4.392 12.483c.152.432.681.64 1.181.464s.781-.668.63-1.102L11.79 9.955z"/></g></svg>