<svg xmlns="http://www.w3.org/2000/svg" width="536.953" height="536.953" viewBox="0 0 536.953 536.953" fill="#fff"><circle cx="45.89" cy="61.152" r="45.89"/><circle cx="459.583" cy="107.052" r="45.89"/><path d="M528.271 215.099a25.365 25.365 0 0 0-14.735-20.12L455.213 168.5l-49.696-25.168c-1.769-1.425-3.672-2.706-5.853-3.653l-40.611-17.432a25.752 25.752 0 0 0-4.829-1.53l-75.057-15.673c-13.712-2.878-27.195 5.938-30.064 19.67-2.869 13.751 5.938 27.205 19.67 30.064l72.579 15.166 19.947 8.559-26.622 35.333-142.08-52.03c-15.023-5.489-31.719 2.219-37.236 17.299-4.495 12.269-.096 25.503 9.801 33l-24.843 9.113-16.973-63.428 9.352-2.008c8.578-1.836 15.596-7.994 18.57-16.247l28.056-78.106c4.743-13.206-2.113-27.741-15.319-32.493-13.158-4.733-27.731 2.113-32.494 15.319l-22.701 63.151-10.395 3.787-3.768.813c-3.242.698-6.187 2.027-8.778 3.768L48.558 129.39c-11.303 4.121-17.538 16.753-13.923 28.229l50.882 162.027.622-.373 5.317 56.266-51.112 104.346c-7.066 14.4-1.109 31.795 13.292 38.833 4.112 2.008 8.473 2.974 12.747 2.974 10.739 0 21.057-5.967 26.105-16.256l54.726-111.729a28.877 28.877 0 0 0 2.84-15.491l-8.664-91.676c-.01-.144-.067-.258-.086-.401l14.134-8.491-.039-.125 43.442-15.931 43.29 37.887a28.897 28.897 0 0 0 19.106 7.2c8.09 0 16.132-3.366 21.86-9.916 10.557-12.068 9.343-30.409-2.716-40.966l-.028-.029 44.255 16.208c1.817.66 3.672 1.09 5.518 1.367l.335.469c-.335 2.534-.469 5.106-.105 7.765l13.445 98.255-6.723 99.115c-1.081 15.988 11.006 29.835 26.995 30.915.669.048 1.339.067 1.998.067 15.138 0 27.894-11.743 28.937-27.062l6.933-102.052a29.77 29.77 0 0 0-.21-5.909l-10.94-79.837 26.269-34.215 30.036-40.258 32.426 14.717 6.809 57.27c1.54 12.919 12.508 22.395 25.207 22.395.994 0 2.008-.047 3.013-.172 13.941-1.664 23.887-14.296 22.223-28.219l-8.503-71.488z"/></svg>