<svg xmlns="http://www.w3.org/2000/svg" width="465.598" height="465.598" viewBox="0 0 465.598 465.598"><path d="M115.257 48.071c-.459.115-28.878 7.401-36.49 33.641-6.34 21.851-50.968 171.838-72.981 245.814-6.024 20.243 5.278 42.237 25.254 49.112l5.24 1.817c19.976 6.875 41.023-3.979 47.009-24.231l41.654-140.942-.574 95.989h31.9l48.683-142.089L159.12 35.62l-43.863 12.451zM233.22 84.667L262.213 0h-58.206zm115.247 352.33l-5.843-83.442h-43.672s6.321 6.502 14.114 14.506c7.794 8.023 7.344 20.941-.994 28.869-8.358 7.918-23.983 5.049-34.913-6.416l-30.944-32.455-26.669-.153-31.078 32.599c-10.94 11.465-26.565 14.334-34.903 6.416-8.348-7.917-8.797-20.846-.995-28.869l14.114-14.506h-43.672l-5.852 83.442c-1.109 15.797 10.834 28.61 26.679 28.61h177.958c15.826.019 27.779-12.794 26.67-28.601z"/><path d="M429.327 378.436l5.23-1.816c19.977-6.876 31.279-28.869 25.255-49.123-22.012-73.967-66.631-223.954-72.971-245.805-7.669-26.374-36.021-33.526-36.309-33.593l-44.37-12.613-93.31 271.805h128.94l-1.435-94.162 41.913 141.075c6.015 20.273 27.082 31.108 47.057 24.232zM172.9 28.066c2.591 7.43 10.289 29.548 18.857 54.143l21.314 61.209 11.953-34.903L190.285 7.688c-5.805 6.79-13.77 16.142-17.385 20.378zm-.258 281.185h22.51l97.097-280.965L275.18 9.945c-13.856 40.44-78.202 228.266-102.538 299.306z"/><path d="M341.63 324.752h-70.705l12.957 13.32h57.748zm-217.642 0v13.32h57.747l12.958-13.32zm40.315 61.009c2.113 1.999 6.77.526 10.414-3.299l35.333-37.045v-14.249l-42.897 44.112c-3.682 3.787-4.954 8.482-2.85 10.481zm91.245-40.364c9.878 10.366 25.255 26.498 35.334 37.064 3.643 3.825 8.31 5.298 10.423 3.299 2.104-1.999.832-6.693-2.85-10.48l-42.897-44.121-.01 14.238zm-15.482-2.869v-21.506h-14.515v21.43z"/></svg>