<svg xmlns="http://www.w3.org/2000/svg" viewBox="0 0 57.589 57.589"><g fill="#010002"><circle cx="14.743" cy="7.173" r="4.375"/><path d="M27.007 26.171c2.925.243 3.82-4.268.874-4.514-4.583-.382-8.752-1.636-10.061-5.859-.037-.119-.087-.219-.136-.322-.465-2.581-2.771-3.485-4.896-3.053-.097-.023-.19-.051-.294-.063-5.421-.623-10.147 2.135-12.287 7.152-1.148 2.694 2.81 5.038 3.969 2.319 1.064-2.494 2.655-4.044 4.8-4.653.003.052.001.102.006.154 0 0-2.022 7.993-2.939 12.867-.461.735-.61 1.364-.538 1.905L.397 51.3c-1.208 3.148 3.67 5.013 4.874 1.871L9.67 36.544c2.619 1.072 5.04 2.527 6.149 5.277 1.1 2.727-.64 6.207-1.979 8.489-1.689 2.879 2.535 5.948 4.24 3.045 2.329-3.972 4.146-8.56 2.662-13.163-1.114-3.451-3.788-5.79-6.868-7.434l2.493-10.804c2.652 2.54 6.556 3.876 10.64 4.217z"/><path d="M57.427 31.395c-1.733-6.634-5.365-12.496-10.436-17.101-1.777-1.615-3.821-1.332-5.266-.188L27.79 11.519c-3.253-.604-4.19 4.439-.937 5.044l13.206 2.452c.215.673.621 1.325 1.265 1.909 3.188 2.897 5.433 6.381 6.903 10.309-7.911 1.237-14.996 5.418-19.588 12.371-1.801 2.728 2.065 6.108 3.881 3.354 3.307-5.007 7.803-8.238 13.033-9.834-1.521 1.387-2.972 2.854-4.416 4.275-2.365 2.328 1.543 5.658 3.883 3.354 2.906-2.858 5.771-5.854 9.395-7.814.016-.008.027-.02.041-.023 2.017-.767 3.669-2.848 2.971-5.521z"/><circle cx="41.304" cy="8.305" r="4.105"/><path d="M36.328 24.246l.291-.451-.521-.136a3.908 3.908 0 0 1-2.666-2.469l-.104-.295-.31.039a3.984 3.984 0 0 1-.879.007l-.287-.031-.082.774.283.031c.246.027.5.032.752.018a4.702 4.702 0 0 0 2.619 2.526 4.669 4.669 0 0 0-.471 1.582c-.02.153-.023.312-.023.482a4.638 4.638 0 0 0-2.348 3.552 4.254 4.254 0 0 0-.021.348l-.01.287.287.014.491-.021.011-.262c.002-.092.004-.188.014-.275a3.869 3.869 0 0 1 2.146-3.06l.226-.113-.01-.255a3.442 3.442 0 0 1 .014-.61 3.836 3.836 0 0 1 .598-1.682z"/></g></svg>