<svg xmlns="http://www.w3.org/2000/svg" viewBox="0 0 43.681 43.681"><g fill="#030104"><path d="M41.472 11.283C37.513 4.543 30.206 0 21.841 0S6.169 4.543 2.211 11.283c-.56.951-.304 2.398.477 3.18l9.714 9.715c.781.78 2.079.805 3.015.219 1.864-1.17 4.064-1.851 6.423-1.851s4.56.681 6.425 1.851c.936.588 2.233.562 3.014-.219l9.715-9.714c.78-.781 1.036-2.229.478-3.181zM21.96 16.509a4.108 4.108 0 1 1 0-8.215 4.108 4.108 0 0 1 0 8.215z"/><path d="M18.938 23.85c-.432.119-.4 1.137.06 2.237l1.241 2.972c.165-.101.337-.19.519-.262l-.606-3.015c-.234-1.171-.782-2.052-1.214-1.932zm4.039-.362c-.446-.04-.808.924-.808 2.117v2.978c.203.013.401.04.592.088l.596-2.965c.234-1.169.066-2.178-.38-2.218zm-1.226 5.095v-2.978c0-1.193-.363-2.157-.808-2.117-.446.04-.614 1.049-.379 2.219l.596 2.965c.19-.049.388-.076.591-.089zm3.23-4.733c-.433-.119-.98.762-1.215 1.932l-.606 3.015a3.2 3.2 0 0 1 .519.263l1.241-2.973c.461-1.103.493-2.118.061-2.237zm-7.95.714c-.404.195-.179 1.181.487 2.172l1.98 2.945c.121-.137.253-.26.395-.373l-1.285-3.076c-.46-1.1-1.173-1.861-1.577-1.668zm7.997 6.082l.677-.676 1.872-1.871.936-.937c.518-.517.627-1.207.215-1.502-.412-.294-1.302.296-1.968 1.287l-2.062 3.067c.133.198.24.41.33.632zm-9.836-4.984c-.412.294-.302.984.215 1.502l.936.936 1.872 1.873.675.676c.089-.223.198-.437.331-.633l-2.062-3.066c-.664-.992-1.555-1.583-1.967-1.288zm11.696-1.098c-.404-.194-1.117.567-1.576 1.668l-1.285 3.076c.142.113.273.236.395.373l1.98-2.945c.665-.991.89-1.976.486-2.172zm-.582 10.005c-.718-.245-1.336-.296-1.923-.16a3.032 3.032 0 0 0-.582.211c-.067.046-.145.077-.217.118a5.294 5.294 0 0 0-.525.316l-.085.061a.365.365 0 0 1-.174.053.59.59 0 0 1-.21-.049 3.53 3.53 0 0 1-.273-.126c-.127-.062-.194-.179-.227-.324a1.336 1.336 0 0 1 .004-.5 2.305 2.305 0 0 0 2.174-2.297c0-.146-.017-.285-.043-.423a2.241 2.241 0 0 0-.4-.928 2.393 2.393 0 0 0-.54-.535 2.168 2.168 0 0 0-.321-.184 2.174 2.174 0 0 0-.404-.15 2.379 2.379 0 0 0-.389-.068c-.071-.007-.139-.021-.211-.021s-.141.016-.211.021a2.276 2.276 0 0 0-.793.218 2.083 2.083 0 0 0-.669.487 2.325 2.325 0 0 0-.439.656 2.24 2.24 0 0 0-.154.503 2.264 2.264 0 0 0-.043.423c0 .825.438 1.545 1.09 1.954a1.755 1.755 0 0 1-.454.291 1.937 1.937 0 0 1-.592.155c-.107.011-.213.033-.322.025-.419-.025-.862-.029-1.104.012-1.382.23-2.429.961-3.111 2.168-.243.43-.323.826-.244 1.215.233 1.154 1.031 1.738 2.187 1.568.548-.084 1.07-.32 1.643-.746.782-.58 1.482-1.356 2.206-2.442l.072-.107a.414.414 0 0 1 .503-.144.32.32 0 0 1 .156.188c.042.16-.055.403-.287.723a9.48 9.48 0 0 0-.331.478c-.837 1.313-1.212 2.508-1.18 3.761.018.686.146 1.211.403 1.654.411.71.952 1.057 1.655 1.057l.06-.002c.8-.021 1.36-.41 1.712-1.189.153-.34.247-.721.278-1.135.076-1.01-.006-1.758-.268-2.431a2.158 2.158 0 0 0-.413-.69c-.194-.217-.642-.072-.841.234-.166.254-.216.418-.225.489a1.011 1.011 0 0 1 .438.526c.26.57.327 1.182.209 1.88-.053.311-.133.636-.364.913a.802.802 0 0 1-.615.31.78.78 0 0 1-.61-.31 1.38 1.38 0 0 1-.195-.309 2.794 2.794 0 0 1-.21-1.48c.086-.727.386-1.37.639-1.85.169-.326.362-.643.572-.943.399-.568 1.184-.756 1.599-.389l.559.491c.478.421.953.82 1.52 1.087.666.313 1.256.415 1.818.312.521-.096 1.002-.469 1.252-.977a1.637 1.637 0 0 0-.008-1.504c-.527-1.025-1.383-1.745-2.542-2.145zm-7.249 2.34a4.901 4.901 0 0 1-1.131.913c-.382.22-.746.328-1.113.331-.318 0-.58-.136-.727-.368-.147-.234-.154-.531-.018-.812.173-.355.453-.598.704-.787.691-.518 1.367-.795 2.066-.85.112-.01.227-.013.341-.013l.11.001c.417.005.637.02.679.245.059.275-.901 1.329-.911 1.34zm8.639.98a.791.791 0 0 1-.572.229c-.529-.006-1.018-.189-1.46-.545a31.509 31.509 0 0 1-.825-.693c-.346-.302-.51-.686-.428-1.004.059-.227.234-.386.484-.438a2 2 0 0 1 .92.016 3.15 3.15 0 0 1 1.897 1.304c.113.167.185.39.188.597s-.067.395-.204.534z"/></g></svg>