<svg xmlns="http://www.w3.org/2000/svg" viewBox="0 0 51.279 51.279"><g fill="#010002"><circle cx="34.093" cy="38.825" r="3.225"/><path d="M28.295 38.892c-.194-2.944 1.004-5.559 3.423-7.543 1.886-1.546-.804-4.204-2.673-2.674-3.425 2.81-4.914 6.885-4.454 11.117-2.202 1.32-4.474 1.756-7.067 1.562-1.132-3.314-1.6-6.848-2.581-10.207-.683-2.335-4.33-1.341-3.645 1.005 1.027 3.515 1.595 7.111 2.754 10.563a43.127 43.127 0 0 0-1.978-.535c-1.16-.29-2.526-.766-3.742-.766-1.16 0-2.096 1.301-2.856 2.027-1.478 1.409-2.989 2.83-4.65 4.025-1.958 1.41-.074 4.691 1.908 3.265 2.229-1.604 4.272-3.473 6.233-5.397 2.033.373 4.181.811 5.971 1.742l.006.004a4.152 4.152 0 0 0 1.808.635c4.244.488 8.489-.463 11.981-2.963 2.34-1.672 1.459-4.905-.438-5.86zm22.955-3.086c-.659-4.34-1.941-8.467-3.975-12.362a2.324 2.324 0 0 0-.35-.499 2.965 2.965 0 0 0-.152-.715c-.513-1.467-.936-2.961-1.445-4.428l-.059-.146a2.394 2.394 0 0 0-.087-.34c-1.665-4.866-2.479-9.884-2.522-15.024-.022-2.792-4.356-2.794-4.334 0 .037 4.459.613 8.894 1.775 13.189-.107.057-.212.12-.314.187-4.03-2.451-6.285-6.522-5.582-11.645.375-2.731-3.799-3.91-4.178-1.152-.537 3.898-.185 7.64 1.815 11.096 1.489 2.569 3.806 4.432 6.388 5.799.258.744.494 1.493.73 2.243-.576 2.315-1.809 4.206-3.469 5.905-1.951 2 1.11 5.066 3.065 3.064 1.296-1.328 2.412-2.794 3.265-4.404a3.492 3.492 0 0 0 2.264.184c1.521 3.234 2.445 6.65 2.984 10.199.422 2.755 4.595 1.582 4.181-1.151z"/><path d="M49.383 25.561c1.39-.496 1.876-2.026 1.379-3.415-.497-1.39-2.157-2.113-3.546-1.616l.438 1.895 1.729 3.136z"/></g></svg>