<svg xmlns="http://www.w3.org/2000/svg" viewBox="0 0 45.791 45.791"><path d="M19.988 22.584L3.483 5.346 3.764 0l18.311 20.273-2.087 2.311zm-.087.096L3.402 6.883l-.068 1.289 15.59 15.59.977-1.082zm4.938 6.997l3.01-3.013-1.027-1.139-3.065 3.065 1.082 1.087zm6.024-4.3l-7.741 7.742.859.859 7.741-7.742-.859-.859zm11.9 19.068l-.574.574a2.642 2.642 0 0 1-3.729 0l-.145-.145a2.617 2.617 0 0 1-.475-.675l-.101.099-11.18-11.181 4.301-4.301 11.182 11.182-.1.1c.242.123.473.273.674.476l.145.146a2.637 2.637 0 0 1 .002 3.725zM31.505 32.329a1.115 1.115 0 1 0-1.576 1.577 1.115 1.115 0 0 0 1.576-1.577zm3.441 3.441a1.113 1.113 0 0 0-1.577-.001 1.116 1.116 0 1 0 1.577.001zm3.442 3.441a1.116 1.116 0 0 0-1.578 1.577 1.116 1.116 0 0 0 1.578-1.577zm4.067-31.039l-.067-1.289-17.379 16.639-1.262 1.208 1.211-1.265 17.35-18.119L42.024 0 22.895 21.181l-2.063 2.284-.052.057-.994 1.101-1.846 2.043 3.011 3.012 1.944-1.944 3.109-3.108L42.455 8.172zM17.08 27.526l-2.151-2.151-.86.861 7.742 7.742.86-.86-2.58-2.581-3.011-3.011zm-2.151 1.291l4.301 4.301L8.048 44.3l-.099-.1a2.623 2.623 0 0 1-.474.674l-.144.146a2.638 2.638 0 0 1-3.727 0l-.574-.574a2.637 2.637 0 0 1 0-3.728l.143-.146c.202-.202.432-.353.673-.476l-.099-.098 11.182-11.181zM8.98 39.211a1.115 1.115 0 1 0-1.578 1.577A1.115 1.115 0 0 0 8.98 39.21zm3.44-3.442a1.116 1.116 0 1 0 0 1.578 1.117 1.117 0 0 0 0-1.578zm1.864-3.44a1.116 1.116 0 1 0 1.58 1.577 1.116 1.116 0 0 0-1.58-1.577z" fill="#030104"/></svg>